<?xml version="1.0" standalone="no"?>
<!DOCTYPE svg PUBLIC "-//W3C//DTD SVG 20010904//EN"
 "http://www.w3.org/TR/2001/REC-SVG-20010904/DTD/svg10.dtd">
<svg version="1.0" xmlns="http://www.w3.org/2000/svg"
 width="600.000000pt" height="600.000000pt" viewBox="0 0 600.000000 600.000000"
 preserveAspectRatio="xMidYMid meet">
<metadata>
Created by potrace 1.16, written by Peter Selinger 2001-2019
</metadata>
<g transform="translate(0.000000,600.000000) scale(0.100000,-0.100000)"
fill="#000000" stroke="none">
<path d="M1335 3919 c-210 -30 -442 -174 -569 -353 -411 -579 -2 -1376 705
-1376 422 0 775 296 854 715 20 106 16 261 -11 365 -20 79 -89 229 -134 290
-30 39 -34 42 -41 25 -7 -18 -8 -17 -8 6 -1 37 -51 89 -87 90 -17 1 -22 3 -11
6 27 7 21 18 -35 63 -173 138 -426 203 -663 169z m276 -326 c129 -66 171 -210
105 -365 l-16 -38 -85 0 -84 0 30 82 c35 95 33 136 -8 168 -54 42 -131 17
-155 -52 -7 -19 -23 -34 -47 -45 -34 -15 -35 -16 -13 -22 13 -3 23 -9 23 -13
-1 -5 -1 -15 -1 -23 0 -8 -19 -24 -41 -36 -37 -19 -46 -20 -85 -9 -29 8 -44
18 -44 29 0 9 17 63 37 120 61 167 134 231 264 231 52 0 77 -6 120 -27z m174
-455 c3 -13 4 -142 3 -288 l-3 -265 -345 0 -345 0 -3 275 c-1 151 0 280 3 287
3 10 80 13 344 13 l341 0 5 -22z"/>
<path d="M1384 3021 c-36 -22 -59 -78 -49 -113 4 -13 19 -35 33 -50 l25 -27
-26 -63 c-15 -35 -27 -69 -27 -75 0 -10 27 -13 100 -13 55 0 100 4 100 9 0 5
-13 39 -29 75 l-30 66 30 29 c84 85 -26 226 -127 162z"/>
<path d="M2512 3603 c45 -104 91 -240 107 -320 48 -236 12 -534 -91 -736 l-19
-37 1218 2 1218 3 72 26 c314 115 455 478 300 774 -42 79 -146 184 -222 223
-144 72 -35 66 -1378 70 -665 1 -1207 -1 -1205 -5z m1188 -261 c53 -39 60 -70
59 -277 0 -120 -5 -203 -12 -225 -25 -71 -123 -102 -203 -64 -59 28 -68 58
-72 242 -2 90 -1 188 3 218 11 92 70 139 160 128 22 -2 51 -13 65 -22z m350
-1 c34 -24 48 -56 56 -124 l7 -57 -45 0 -45 0 -5 45 c-8 70 -45 97 -82 59 -13
-13 -16 -46 -16 -203 0 -201 2 -211 52 -211 36 0 48 24 48 99 0 59 -1 61 -26
61 -23 0 -25 3 -22 43 l3 42 65 0 65 0 -1 -120 c-1 -135 -13 -174 -64 -200
-38 -19 -103 -19 -145 1 -59 28 -65 56 -65 292 0 201 1 210 23 243 39 58 137
74 197 30z m-780 -236 l0 -255 80 0 80 0 0 -40 0 -40 -125 0 -125 0 0 295 0
295 45 0 45 0 0 -255z m1010 -40 l0 -295 -50 0 -50 0 0 295 0 295 50 0 50 0 0
-295z m241 128 l44 -166 3 166 2 167 46 0 45 0 -5 -217 c-3 -120 -5 -253 -6
-296 l0 -78 -47 3 -48 3 -52 194 c-29 107 -55 196 -58 199 -3 3 -5 -85 -5
-196 l0 -202 -40 0 -40 0 0 295 0 295 59 0 58 0 44 -167z"/>
<path d="M3580 3261 c-11 -22 -14 -380 -2 -397 11 -17 35 -22 60 -13 22 8 22
10 22 207 0 141 -3 201 -12 210 -18 18 -56 14 -68 -7z"/>
</g>
</svg>
