<svg id="svg" version="1.1" xmlns="http://www.w3.org/2000/svg" xmlns:xlink="http://www.w3.org/1999/xlink" width="400" height="400" viewBox="0, 0, 400,400"><g id="svgg"><path id="path0" d="M183.798 0.571 C 183.505 0.991,181.651 1.267,176.800 1.613 C 173.170 1.871,169.644 2.313,168.964 2.595 C 168.284 2.876,166.394 3.232,164.764 3.386 C 163.134 3.539,160.450 3.995,158.800 4.399 C 157.150 4.803,154.900 5.317,153.800 5.541 C 150.711 6.171,146.786 7.246,144.800 8.008 C 143.810 8.388,142.199 8.819,141.220 8.967 C 140.241 9.114,139.240 9.400,138.997 9.603 C 138.753 9.805,137.574 10.244,136.377 10.579 C 132.817 11.575,128.241 13.199,127.827 13.613 C 127.614 13.826,127.164 14.000,126.826 14.000 C 126.257 14.000,123.775 15.072,120.400 16.776 C 119.630 17.165,118.474 17.611,117.832 17.766 C 117.189 17.922,116.220 18.398,115.678 18.825 C 115.136 19.251,114.430 19.600,114.109 19.600 C 113.789 19.600,113.069 19.960,112.509 20.400 C 111.950 20.840,111.201 21.209,110.846 21.219 C 110.491 21.229,109.120 21.855,107.800 22.610 C 106.480 23.364,104.770 24.327,104.000 24.749 C 98.760 27.620,97.321 28.468,94.251 30.500 C 93.004 31.325,91.836 32.000,91.654 32.000 C 91.473 32.000,90.998 32.360,90.600 32.800 C 90.202 33.240,89.659 33.600,89.393 33.600 C 88.926 33.600,86.467 35.341,85.166 36.591 C 84.818 36.926,84.394 37.200,84.224 37.200 C 84.054 37.200,83.402 37.605,82.775 38.100 C 82.148 38.595,80.540 39.810,79.203 40.800 C 66.223 50.407,50.422 66.200,40.800 79.183 C 39.810 80.519,38.483 82.285,37.852 83.106 C 36.651 84.670,35.850 85.826,33.218 89.800 C 32.343 91.120,31.431 92.429,31.190 92.709 C 30.949 92.989,30.495 93.832,30.182 94.582 C 29.869 95.332,29.427 96.060,29.200 96.200 C 28.973 96.340,28.521 97.027,28.194 97.727 C 27.867 98.427,27.130 99.810,26.556 100.800 C 25.982 101.790,25.099 103.320,24.594 104.200 C 22.906 107.139,17.600 117.890,17.600 118.369 C 17.600 118.629,17.256 119.507,16.835 120.321 C 15.208 123.465,14.000 126.237,14.000 126.826 C 14.000 127.164,13.826 127.614,13.613 127.827 C 13.199 128.241,11.575 132.817,10.579 136.377 C 10.244 137.574,9.805 138.753,9.603 138.997 C 9.400 139.240,9.114 140.241,8.967 141.220 C 8.819 142.199,8.388 143.810,8.008 144.800 C 7.245 146.790,6.168 150.721,5.542 153.800 C 5.319 154.900,4.865 156.790,4.534 158.000 C 4.203 159.210,3.771 161.606,3.575 163.324 C 3.378 165.042,2.958 167.320,2.641 168.385 C 2.325 169.451,1.952 172.005,1.813 174.061 C 1.476 179.024,0.814 183.200,0.364 183.200 C 0.151 183.200,0.000 190.179,0.000 200.000 C 0.000 209.821,0.151 216.800,0.364 216.800 C 0.814 216.800,1.476 220.976,1.813 225.949 C 1.953 228.011,2.322 230.531,2.633 231.549 C 2.944 232.567,3.311 234.660,3.448 236.200 C 3.586 237.740,4.036 240.029,4.449 241.287 C 4.862 242.545,5.200 244.097,5.200 244.736 C 5.200 245.375,5.650 247.276,6.200 248.961 C 6.750 250.646,7.200 252.517,7.200 253.118 C 7.200 253.720,7.533 254.839,7.939 255.606 C 8.346 256.373,8.804 257.801,8.957 258.780 C 9.110 259.759,9.400 260.760,9.603 261.003 C 9.805 261.247,10.232 262.450,10.551 263.678 C 10.871 264.905,11.418 266.461,11.766 267.135 C 12.115 267.809,12.400 268.597,12.400 268.886 C 12.400 269.175,12.736 270.039,13.147 270.806 C 13.557 271.573,14.030 272.830,14.197 273.600 C 14.364 274.370,14.838 275.675,15.250 276.500 C 17.213 280.426,17.502 281.078,17.766 282.168 C 17.922 282.811,18.398 283.780,18.825 284.322 C 19.251 284.864,19.600 285.528,19.600 285.797 C 19.600 286.066,20.521 288.067,21.646 290.243 C 23.632 294.084,24.370 295.431,26.556 299.200 C 27.130 300.190,27.867 301.573,28.194 302.273 C 28.521 302.973,28.973 303.660,29.200 303.800 C 29.427 303.940,29.869 304.668,30.182 305.418 C 30.495 306.168,30.949 307.011,31.190 307.291 C 31.431 307.571,32.343 308.880,33.218 310.200 C 35.850 314.174,36.651 315.330,37.852 316.894 C 38.483 317.715,39.810 319.477,40.800 320.808 C 49.119 331.996,65.158 348.527,74.860 355.913 C 80.001 359.827,81.729 361.121,83.786 362.600 C 85.010 363.480,86.664 364.695,87.461 365.300 C 88.258 365.905,89.127 366.400,89.393 366.400 C 89.659 366.400,90.202 366.760,90.600 367.200 C 90.998 367.640,91.473 368.000,91.654 368.000 C 91.836 368.000,93.004 368.675,94.251 369.500 C 97.013 371.328,99.010 372.543,100.600 373.365 C 101.260 373.706,102.700 374.512,103.800 375.157 C 106.822 376.927,117.830 382.400,118.369 382.400 C 118.629 382.400,119.507 382.744,120.321 383.165 C 123.550 384.836,126.245 386.000,126.882 386.000 C 127.251 386.000,127.663 386.178,127.797 386.395 C 127.931 386.612,129.067 387.084,130.320 387.443 C 131.574 387.802,132.815 388.268,133.077 388.478 C 133.340 388.689,134.678 389.123,136.052 389.443 C 137.425 389.763,138.749 390.192,138.994 390.395 C 139.239 390.599,140.241 390.886,141.220 391.033 C 142.199 391.181,143.810 391.612,144.800 391.992 C 146.777 392.750,150.688 393.823,153.800 394.461 C 154.900 394.687,157.240 395.208,159.000 395.620 C 160.760 396.032,163.209 396.476,164.441 396.606 C 165.674 396.736,167.509 397.092,168.520 397.396 C 169.531 397.700,173.292 398.154,176.879 398.405 C 181.618 398.736,183.521 399.016,183.844 399.430 C 184.215 399.906,186.879 400.000,200.000 400.000 C 213.121 400.000,215.785 399.906,216.156 399.430 C 216.479 399.016,218.379 398.736,223.111 398.406 C 226.691 398.155,230.471 397.701,231.511 397.395 C 232.550 397.090,234.840 396.654,236.600 396.428 C 238.360 396.201,240.684 395.742,241.764 395.408 C 242.844 395.074,244.284 394.792,244.964 394.782 C 245.644 394.773,246.920 394.484,247.800 394.141 C 248.680 393.798,250.702 393.272,252.294 392.972 C 253.885 392.672,255.595 392.172,256.094 391.861 C 256.592 391.549,257.801 391.175,258.780 391.030 C 259.759 390.884,260.760 390.600,261.003 390.397 C 261.247 390.195,262.450 389.768,263.678 389.449 C 264.905 389.129,266.461 388.582,267.135 388.234 C 267.809 387.885,268.597 387.600,268.886 387.600 C 269.175 387.600,270.039 387.264,270.806 386.853 C 271.573 386.443,272.830 385.970,273.600 385.803 C 274.912 385.519,275.551 385.241,279.579 383.200 C 280.448 382.760,281.371 382.400,281.631 382.400 C 282.170 382.400,293.178 376.927,296.200 375.157 C 297.300 374.512,298.740 373.706,299.400 373.365 C 300.990 372.543,302.987 371.328,305.749 369.500 C 306.996 368.675,308.164 368.000,308.346 368.000 C 308.527 368.000,309.002 367.640,309.400 367.200 C 309.798 366.760,310.341 366.400,310.607 366.400 C 311.074 366.400,313.533 364.659,314.834 363.409 C 315.182 363.074,315.606 362.800,315.776 362.800 C 315.946 362.800,316.598 362.395,317.225 361.900 C 317.852 361.405,319.463 360.190,320.805 359.200 C 333.646 349.727,349.438 333.937,359.200 320.808 C 360.190 319.477,361.517 317.715,362.148 316.894 C 363.349 315.330,364.150 314.174,366.782 310.200 C 367.657 308.880,368.569 307.571,368.810 307.291 C 369.051 307.011,369.505 306.168,369.818 305.418 C 370.131 304.668,370.573 303.940,370.800 303.800 C 371.027 303.660,371.479 302.973,371.806 302.273 C 372.133 301.573,372.870 300.190,373.444 299.200 C 375.630 295.431,376.368 294.084,378.354 290.243 C 379.479 288.067,380.400 286.066,380.400 285.797 C 380.400 285.528,380.749 284.864,381.175 284.322 C 381.602 283.780,382.078 282.811,382.234 282.168 C 382.498 281.078,382.787 280.426,384.750 276.500 C 385.162 275.675,385.636 274.370,385.803 273.600 C 385.970 272.830,386.443 271.573,386.853 270.806 C 387.264 270.039,387.600 269.175,387.600 268.886 C 387.600 268.597,387.885 267.809,388.234 267.135 C 388.582 266.461,389.129 264.905,389.449 263.678 C 389.768 262.450,390.195 261.247,390.397 261.003 C 390.600 260.760,390.890 259.759,391.043 258.780 C 391.196 257.801,391.654 256.373,392.061 255.606 C 392.467 254.839,392.800 253.720,392.800 253.118 C 392.800 252.517,393.250 250.646,393.800 248.961 C 394.350 247.276,394.800 245.375,394.800 244.736 C 394.800 244.097,395.138 242.545,395.551 241.287 C 395.964 240.029,396.414 237.740,396.552 236.200 C 396.689 234.660,397.056 232.567,397.367 231.549 C 397.678 230.531,398.047 228.011,398.187 225.949 C 398.524 220.976,399.186 216.800,399.636 216.800 C 399.849 216.800,400.000 209.821,400.000 200.000 C 400.000 190.179,399.849 183.200,399.636 183.200 C 399.186 183.200,398.524 179.024,398.187 174.061 C 398.048 172.005,397.675 169.451,397.359 168.385 C 397.042 167.320,396.622 165.042,396.425 163.324 C 396.229 161.606,395.797 159.210,395.466 158.000 C 395.135 156.790,394.681 154.900,394.458 153.800 C 393.832 150.721,392.755 146.790,391.992 144.800 C 391.612 143.810,391.181 142.199,391.033 141.220 C 390.886 140.241,390.600 139.240,390.397 138.997 C 390.195 138.753,389.756 137.574,389.421 136.377 C 388.425 132.817,386.801 128.241,386.387 127.827 C 386.174 127.614,386.000 127.164,386.000 126.826 C 386.000 126.257,384.928 123.775,383.224 120.400 C 382.835 119.630,382.389 118.474,382.234 117.832 C 382.078 117.189,381.602 116.220,381.175 115.678 C 380.749 115.136,380.400 114.472,380.400 114.203 C 380.400 113.934,379.479 111.933,378.354 109.757 C 376.368 105.916,375.630 104.569,373.444 100.800 C 372.870 99.810,372.133 98.427,371.806 97.727 C 371.479 97.027,371.027 96.340,370.800 96.200 C 370.573 96.060,370.131 95.332,369.818 94.582 C 369.505 93.832,369.051 92.989,368.810 92.709 C 368.569 92.429,367.657 91.120,366.782 89.800 C 364.150 85.826,363.349 84.670,362.148 83.106 C 361.517 82.285,360.190 80.519,359.200 79.183 C 349.578 66.200,333.777 50.407,320.797 40.800 C 319.460 39.810,317.852 38.595,317.225 38.100 C 316.598 37.605,315.946 37.200,315.776 37.200 C 315.606 37.200,315.182 36.926,314.834 36.591 C 313.533 35.341,311.074 33.600,310.607 33.600 C 310.341 33.600,309.798 33.240,309.400 32.800 C 309.002 32.360,308.527 32.000,308.346 32.000 C 308.164 32.000,306.996 31.325,305.749 30.500 C 302.492 28.344,299.420 26.550,295.925 24.761 C 295.114 24.346,294.339 23.825,294.202 23.603 C 294.065 23.381,293.628 23.200,293.230 23.200 C 292.833 23.200,292.079 22.866,291.554 22.458 C 291.029 22.050,289.939 21.501,289.132 21.238 C 288.325 20.974,287.448 20.498,287.183 20.180 C 286.918 19.861,286.388 19.600,286.005 19.600 C 285.622 19.600,284.864 19.251,284.322 18.825 C 283.780 18.398,282.811 17.922,282.168 17.766 C 281.078 17.502,280.426 17.213,276.500 15.250 C 275.675 14.838,274.370 14.364,273.600 14.197 C 272.830 14.030,271.573 13.557,270.806 13.147 C 270.039 12.736,269.175 12.400,268.886 12.400 C 268.597 12.400,267.809 12.115,267.135 11.766 C 266.461 11.418,264.905 10.871,263.678 10.551 C 262.450 10.232,261.247 9.805,261.003 9.603 C 260.760 9.400,259.759 9.116,258.780 8.970 C 257.801 8.825,256.592 8.451,256.094 8.139 C 255.595 7.828,253.885 7.328,252.294 7.028 C 250.702 6.728,248.680 6.202,247.800 5.859 C 246.920 5.516,245.659 5.227,244.999 5.218 C 244.338 5.208,242.627 4.865,241.196 4.456 C 239.766 4.047,237.182 3.580,235.455 3.418 C 233.728 3.256,231.749 2.890,231.058 2.603 C 230.366 2.317,226.830 1.870,223.200 1.609 C 218.422 1.267,216.477 0.979,216.156 0.568 C 215.492 -0.282,184.390 -0.278,183.798 0.571 M203.800 29.767 C 209.872 30.700,214.070 33.475,215.633 37.590 C 216.469 39.791,216.630 41.811,216.000 42.200 C 215.172 42.712,215.570 44.742,216.643 45.481 C 218.759 46.939,224.000 52.658,224.000 53.509 C 224.000 53.720,224.331 54.321,224.736 54.846 C 225.140 55.371,225.667 56.520,225.907 57.400 C 226.146 58.280,226.641 59.810,227.006 60.800 C 227.856 63.104,228.243 74.520,227.663 80.200 C 227.273 84.015,227.295 84.255,228.127 85.400 C 230.642 88.857,227.959 96.994,224.025 97.844 C 221.584 98.371,220.912 98.848,220.454 100.378 C 220.202 101.218,219.727 102.128,219.398 102.402 C 219.069 102.675,218.799 103.101,218.798 103.349 C 218.796 103.597,218.526 104.316,218.197 104.946 C 217.493 106.297,218.245 109.224,219.628 110.512 C 220.053 110.907,220.400 111.470,220.400 111.762 C 220.400 112.053,220.762 112.752,221.204 113.314 C 221.645 113.875,222.121 114.905,222.260 115.602 C 222.400 116.299,222.713 116.938,222.957 117.023 C 223.967 117.373,225.439 118.022,226.000 118.364 C 226.523 118.683,227.844 119.296,232.000 121.148 C 232.550 121.394,233.270 121.776,233.600 121.997 C 233.930 122.219,234.650 122.580,235.200 122.799 C 235.750 123.019,236.470 123.366,236.800 123.572 C 237.130 123.778,238.660 124.520,240.200 125.223 C 245.177 127.493,250.584 130.054,251.200 130.433 C 251.530 130.636,252.250 130.988,252.800 131.215 C 257.045 132.967,259.594 134.824,259.609 136.175 C 259.614 136.629,259.966 137.767,260.392 138.706 C 260.817 139.644,261.290 141.084,261.442 141.906 C 261.593 142.727,262.051 144.027,262.459 144.794 C 262.866 145.561,263.204 146.641,263.209 147.194 C 263.214 147.747,263.557 148.949,263.973 149.863 C 265.005 152.136,265.696 155.680,265.364 157.000 C 265.093 158.082,256.020 167.540,253.200 169.682 C 252.430 170.267,250.738 171.564,249.440 172.565 C 248.143 173.565,246.748 174.490,246.340 174.619 C 245.933 174.748,245.600 174.979,245.600 175.132 C 245.600 175.573,233.387 181.600,232.493 181.600 C 232.220 181.600,231.325 181.960,230.504 182.400 C 229.684 182.840,228.649 183.204,228.206 183.209 C 227.763 183.214,226.615 183.574,225.656 184.009 C 224.697 184.444,223.511 184.800,223.020 184.800 C 222.530 184.800,220.704 185.172,218.964 185.627 C 216.035 186.393,213.670 186.692,203.673 187.562 C 201.624 187.740,198.294 187.733,196.273 187.546 C 194.253 187.359,190.386 187.026,187.679 186.806 C 184.973 186.586,182.398 186.213,181.958 185.977 C 181.517 185.741,180.041 185.372,178.678 185.156 C 175.988 184.731,170.839 183.128,169.138 182.187 C 168.554 181.864,167.846 181.600,167.565 181.600 C 166.595 181.600,154.400 175.619,154.400 175.144 C 154.400 174.984,154.056 174.745,153.635 174.611 C 153.214 174.478,152.179 173.835,151.335 173.183 C 150.491 172.531,149.440 171.722,149.000 171.384 C 142.946 166.743,135.674 159.508,134.743 157.200 C 134.253 155.986,134.876 152.399,136.012 149.898 C 136.436 148.964,136.787 147.750,136.794 147.200 C 136.800 146.650,137.094 145.660,137.448 145.000 C 137.801 144.340,138.325 142.900,138.613 141.800 C 139.075 140.028,139.863 137.595,140.837 134.931 C 141.118 134.162,143.297 132.894,147.200 131.229 C 147.750 130.994,148.470 130.636,148.800 130.433 C 149.130 130.230,151.200 129.219,153.400 128.187 C 161.974 124.165,165.824 122.322,166.400 121.966 C 166.730 121.761,167.450 121.394,168.000 121.148 C 168.550 120.903,169.900 120.294,171.000 119.795 C 172.100 119.296,173.270 118.779,173.600 118.646 C 173.930 118.514,174.470 118.224,174.800 118.002 C 175.130 117.781,175.873 117.433,176.450 117.229 C 177.237 116.951,177.570 116.487,177.778 115.379 C 178.053 113.910,179.559 111.274,180.900 109.911 C 181.285 109.520,181.606 108.885,181.613 108.500 C 181.620 108.115,181.890 107.451,182.213 107.024 C 182.968 106.025,182.967 104.237,182.211 103.609 C 181.886 103.340,181.504 102.495,181.361 101.731 C 180.970 99.646,179.408 98.000,177.822 98.000 C 174.112 98.000,170.689 90.901,172.093 86.114 C 172.574 84.471,172.614 83.264,172.304 79.743 C 171.768 73.656,172.155 63.090,172.998 60.795 C 173.361 59.808,173.854 58.280,174.093 57.400 C 174.333 56.520,174.860 55.371,175.264 54.846 C 175.669 54.321,176.000 53.720,176.000 53.509 C 176.000 52.658,181.241 46.939,183.357 45.481 C 184.430 44.742,184.828 42.712,184.000 42.200 C 183.370 41.811,183.531 39.791,184.367 37.590 C 185.881 33.606,190.141 30.704,195.800 29.802 C 200.006 29.131,199.669 29.133,203.800 29.767 M112.375 168.612 C 115.807 168.872,119.988 170.214,121.954 171.686 C 122.479 172.079,123.155 172.400,123.457 172.400 C 124.143 172.400,130.867 179.025,131.634 180.457 C 133.464 183.874,135.200 187.399,135.200 187.698 C 135.200 187.888,135.542 188.799,135.961 189.722 C 136.669 191.285,137.348 195.290,137.873 201.000 C 138.158 204.103,136.974 213.252,135.974 215.674 C 135.548 216.705,135.200 217.968,135.200 218.480 C 135.200 218.993,134.865 220.039,134.456 220.806 C 134.047 221.573,133.573 222.650,133.403 223.200 C 132.843 225.010,129.506 230.569,128.001 232.200 C 124.437 236.062,124.242 236.795,126.241 238.842 C 128.834 241.498,130.383 255.745,128.622 260.738 C 128.304 261.640,127.932 263.957,127.796 265.889 C 127.659 267.820,127.287 270.133,126.968 271.029 C 126.649 271.926,126.131 273.816,125.817 275.229 C 125.503 276.643,124.973 278.520,124.640 279.400 C 124.307 280.280,124.027 281.929,124.018 283.064 C 124.008 284.200,123.641 286.270,123.202 287.664 C 122.763 289.059,122.285 291.460,122.139 293.000 C 121.994 294.540,121.617 296.199,121.300 296.686 C 120.984 297.174,120.578 298.762,120.398 300.216 C 120.218 301.670,119.806 303.161,119.483 303.530 C 118.955 304.132,118.000 308.400,118.000 310.156 C 118.000 311.645,118.741 310.283,119.010 308.300 C 119.167 307.145,119.634 305.532,120.048 304.716 C 120.461 303.900,120.808 302.730,120.818 302.116 C 120.827 301.502,121.111 300.280,121.448 299.400 C 121.785 298.520,122.393 296.180,122.799 294.200 C 123.205 292.220,123.721 289.880,123.946 289.000 C 124.170 288.120,124.534 286.230,124.754 284.800 C 125.355 280.898,126.707 274.808,127.374 273.000 C 127.699 272.120,127.973 270.667,127.982 269.772 C 127.992 268.876,128.393 266.446,128.873 264.372 C 129.580 261.320,129.760 259.202,129.819 253.275 C 129.897 245.275,130.118 244.420,131.720 245.925 C 132.233 246.406,132.817 246.800,133.020 246.800 C 133.223 246.800,134.291 247.231,135.394 247.758 C 136.497 248.285,139.830 249.883,142.800 251.308 C 145.770 252.734,150.090 254.804,152.400 255.909 C 154.710 257.013,158.505 258.832,160.834 259.952 L 165.067 261.986 166.086 264.693 C 166.646 266.182,167.595 269.020,168.195 271.000 C 168.795 272.980,169.604 275.500,169.991 276.600 C 171.350 280.456,172.053 282.617,172.591 284.600 C 172.890 285.700,173.433 287.408,173.798 288.395 C 174.168 289.396,174.362 290.691,174.236 291.321 C 173.551 294.744,158.775 309.003,151.800 312.972 C 151.140 313.348,149.880 314.090,149.000 314.622 C 148.120 315.153,146.680 315.949,145.800 316.389 C 144.920 316.830,143.930 317.354,143.600 317.555 C 142.263 318.367,138.696 320.000,138.257 320.000 C 137.999 320.000,137.140 320.347,136.348 320.772 C 135.556 321.196,134.209 321.673,133.354 321.830 C 132.499 321.988,131.173 322.451,130.406 322.859 C 129.639 323.266,128.571 323.600,128.031 323.600 C 127.492 323.600,125.780 323.951,124.226 324.380 C 118.988 325.827,105.337 326.809,100.805 326.065 C 99.372 325.829,96.580 325.477,94.600 325.281 C 92.620 325.086,89.740 324.601,88.200 324.204 C 82.178 322.652,78.537 321.527,77.121 320.780 C 76.307 320.351,75.372 320.000,75.042 320.000 C 74.712 320.000,73.596 319.550,72.562 319.000 C 71.527 318.450,70.460 318.000,70.189 318.000 C 69.919 318.000,69.489 317.748,69.233 317.439 C 68.977 317.131,68.364 316.777,67.871 316.654 C 66.887 316.406,60.632 312.734,59.591 311.792 C 59.231 311.466,58.797 311.200,58.626 311.200 C 58.455 311.200,57.750 310.752,57.058 310.204 C 56.366 309.655,55.373 308.890,54.851 308.504 C 49.737 304.713,41.200 295.953,38.664 291.893 C 38.028 290.876,38.022 290.641,38.586 288.979 C 38.924 287.985,39.200 286.901,39.200 286.570 C 39.200 286.239,39.535 285.300,39.944 284.484 C 40.353 283.668,40.807 282.222,40.953 281.272 C 41.099 280.321,41.464 279.151,41.764 278.672 C 42.065 278.192,42.437 277.080,42.592 276.200 C 42.747 275.320,43.120 274.150,43.422 273.600 C 43.724 273.050,44.232 271.610,44.552 270.400 C 46.451 263.208,47.137 261.991,50.126 260.517 C 51.487 259.846,53.680 258.765,55.000 258.116 C 56.320 257.466,57.760 256.745,58.200 256.512 C 58.640 256.280,60.080 255.604,61.400 255.009 C 62.720 254.415,64.115 253.765,64.500 253.564 C 66.080 252.742,66.707 252.441,69.000 251.410 C 70.320 250.816,71.670 250.164,72.000 249.962 C 72.330 249.760,73.050 249.394,73.600 249.148 C 77.789 247.281,79.077 246.682,79.600 246.357 C 83.288 244.069,83.176 243.794,83.365 255.621 C 83.493 263.639,83.663 266.182,84.169 267.600 C 84.523 268.590,84.985 270.706,85.196 272.301 C 85.408 273.897,85.850 275.723,86.179 276.360 C 86.508 276.996,86.947 279.319,87.154 281.521 C 87.362 283.722,87.717 285.871,87.944 286.295 C 88.340 287.036,89.526 292.159,90.560 297.600 C 90.832 299.030,91.268 300.594,91.528 301.076 C 91.789 301.557,92.258 303.087,92.571 304.476 C 93.204 307.285,94.279 310.419,94.789 310.941 C 95.240 311.403,94.122 305.630,93.649 305.055 C 93.443 304.805,93.147 303.700,92.990 302.600 C 92.834 301.500,92.390 300.060,92.004 299.400 C 91.599 298.708,91.204 296.955,91.071 295.260 C 90.944 293.643,90.583 291.929,90.270 291.450 C 89.956 290.972,89.566 289.414,89.403 287.990 C 89.240 286.565,88.870 284.937,88.580 284.371 C 88.290 283.806,87.934 281.736,87.789 279.771 C 87.607 277.314,87.299 275.878,86.802 275.169 C 86.381 274.570,85.959 272.981,85.792 271.369 C 85.634 269.846,85.226 267.880,84.886 267.000 C 84.399 265.742,84.232 263.100,84.104 254.654 C 83.926 242.884,84.115 241.694,86.652 238.669 C 88.259 236.753,87.946 235.929,84.171 232.136 C 82.285 230.242,80.260 227.967,79.671 227.082 C 79.082 226.197,78.330 225.067,78.000 224.571 C 76.932 222.967,74.800 219.220,74.800 218.946 C 74.800 218.800,74.374 217.762,73.854 216.640 C 69.265 206.743,69.413 188.867,74.164 179.155 C 77.878 171.564,86.041 167.565,93.339 169.762 C 95.190 170.319,96.551 170.235,97.484 169.506 C 98.009 169.097,106.891 168.045,108.200 168.238 C 108.640 168.303,110.519 168.471,112.375 168.612 M300.176 168.610 C 307.042 169.200,313.912 173.459,318.550 180.000 C 319.850 181.834,323.600 189.307,323.600 190.065 C 323.600 190.389,323.956 191.992,324.391 193.627 C 325.943 199.467,325.349 210.318,323.131 216.600 C 322.899 217.260,322.436 218.610,322.105 219.600 C 320.749 223.644,317.103 230.290,315.083 232.400 C 312.262 235.347,311.702 237.248,313.247 238.638 C 315.757 240.897,316.082 242.835,315.921 254.600 C 315.797 263.633,315.668 265.564,315.133 266.400 C 314.782 266.950,314.380 268.726,314.240 270.346 C 314.064 272.385,313.742 273.602,313.193 274.300 C 312.611 275.040,312.400 275.920,312.400 277.612 C 312.400 278.879,312.048 281.060,311.618 282.458 C 311.188 283.856,310.711 286.260,310.557 287.800 C 310.403 289.340,310.030 290.980,309.728 291.445 C 309.427 291.910,309.072 293.530,308.939 295.045 C 308.806 296.560,308.383 298.340,307.999 299.000 C 307.614 299.660,307.184 301.124,307.042 302.254 C 306.900 303.384,306.508 304.863,306.169 305.542 C 305.831 306.220,305.458 307.456,305.342 308.288 L 305.130 309.800 306.119 308.200 C 306.664 307.320,307.234 305.790,307.386 304.800 C 307.538 303.810,307.987 302.100,308.384 301.000 C 308.780 299.900,309.232 298.190,309.388 297.200 C 309.544 296.210,309.907 294.680,310.195 293.800 C 310.483 292.920,310.931 290.793,311.191 289.074 C 311.450 287.354,311.896 285.374,312.182 284.674 C 312.468 283.973,312.829 281.875,312.986 280.012 C 313.142 278.149,313.525 276.131,313.837 275.529 C 314.148 274.926,314.592 273.074,314.823 271.413 C 315.054 269.753,315.525 267.721,315.868 266.899 C 316.361 265.718,316.522 263.341,316.632 255.602 C 316.709 250.211,316.778 245.665,316.786 245.500 C 316.813 244.915,318.306 245.211,319.309 246.000 C 319.869 246.440,320.464 246.800,320.631 246.800 C 320.970 246.800,325.856 249.040,326.800 249.628 C 327.130 249.834,327.850 250.181,328.400 250.401 C 328.950 250.620,329.670 250.981,330.000 251.203 C 330.330 251.424,331.050 251.805,331.600 252.048 C 332.561 252.473,337.378 254.741,342.006 256.948 C 343.219 257.527,344.412 258.000,344.657 258.000 C 344.902 258.000,345.311 258.252,345.567 258.561 C 345.823 258.869,346.506 259.240,347.085 259.386 C 347.663 259.531,348.580 259.998,349.122 260.425 C 349.664 260.851,350.434 261.200,350.834 261.200 C 351.843 261.200,353.474 263.484,353.829 265.396 C 353.992 266.274,354.453 267.714,354.854 268.596 C 355.255 269.478,355.587 270.650,355.594 271.200 C 355.600 271.750,355.873 272.715,356.201 273.344 C 356.529 273.973,357.056 275.413,357.373 276.544 C 357.689 277.675,358.248 279.500,358.616 280.600 C 358.983 281.700,359.462 283.140,359.680 283.800 C 359.897 284.460,360.231 285.450,360.422 286.000 C 361.833 290.078,361.956 290.924,361.319 292.156 C 359.873 294.954,352.942 302.276,347.800 306.441 C 344.315 309.263,344.403 309.200,339.543 312.404 C 335.073 315.350,334.847 315.488,333.000 316.400 C 332.120 316.834,331.130 317.356,330.800 317.560 C 329.812 318.168,325.859 319.920,325.000 320.130 C 324.560 320.238,323.210 320.729,322.000 321.221 C 317.306 323.130,316.130 323.510,314.123 323.761 C 312.981 323.904,311.451 324.265,310.723 324.563 C 309.995 324.861,308.230 325.221,306.800 325.363 C 305.370 325.506,303.030 325.750,301.600 325.907 C 295.269 326.601,281.626 325.864,277.600 324.610 C 276.610 324.302,274.690 323.871,273.334 323.652 C 271.977 323.434,270.357 322.997,269.734 322.681 C 269.110 322.365,267.960 321.991,267.178 321.850 C 266.395 321.709,265.052 321.234,264.193 320.796 C 263.334 320.358,262.378 320.000,262.070 320.000 C 261.761 320.000,260.854 319.665,260.054 319.255 C 259.255 318.845,257.970 318.217,257.200 317.860 C 248.346 313.754,240.267 307.910,232.996 300.348 C 225.713 292.774,225.028 291.570,226.202 288.395 C 226.567 287.408,227.110 285.700,227.409 284.600 C 227.947 282.617,228.650 280.456,230.009 276.600 C 230.396 275.500,231.203 272.980,231.800 271.000 C 233.377 265.775,234.941 261.913,235.613 261.583 C 237.482 260.668,247.161 256.040,248.000 255.659 C 248.550 255.410,249.270 255.038,249.600 254.833 C 249.930 254.628,252.900 253.171,256.200 251.596 C 259.500 250.021,263.796 247.922,265.747 246.933 C 270.257 244.647,270.037 244.273,270.172 254.449 C 270.261 261.191,270.422 263.339,270.931 264.600 C 271.286 265.480,271.757 267.688,271.978 269.507 C 272.199 271.326,272.566 273.162,272.794 273.588 C 273.246 274.434,274.611 280.674,275.246 284.800 C 275.466 286.230,275.830 288.120,276.054 289.000 C 276.279 289.880,276.795 292.220,277.201 294.200 C 277.607 296.180,278.215 298.520,278.552 299.400 C 278.889 300.280,279.173 301.502,279.182 302.116 C 279.192 302.730,279.539 303.900,279.952 304.716 C 280.366 305.532,280.833 307.145,280.990 308.300 C 281.147 309.454,281.425 310.492,281.609 310.605 C 282.110 310.915,282.524 309.235,282.084 308.681 C 281.873 308.416,281.572 307.300,281.415 306.200 C 281.258 305.100,280.859 303.898,280.529 303.530 C 280.200 303.161,279.782 301.670,279.602 300.216 C 279.422 298.762,279.016 297.174,278.700 296.686 C 278.383 296.199,278.006 294.540,277.861 293.000 C 277.715 291.460,277.237 289.059,276.798 287.664 C 276.359 286.270,275.992 284.200,275.982 283.064 C 275.973 281.929,275.693 280.280,275.360 279.400 C 275.027 278.520,274.495 276.630,274.179 275.200 C 273.862 273.770,273.332 271.921,273.002 271.092 C 272.671 270.262,272.400 268.806,272.400 267.855 C 272.400 266.905,272.117 265.244,271.772 264.164 C 269.680 257.622,270.866 242.031,273.690 238.955 C 275.630 236.842,275.211 234.983,272.320 232.879 C 271.135 232.016,268.284 228.855,266.898 226.867 C 266.182 225.840,265.074 224.252,264.437 223.338 C 263.799 222.423,263.145 221.253,262.984 220.738 C 262.822 220.222,262.355 219.371,261.945 218.846 C 261.535 218.321,261.200 217.561,261.200 217.157 C 261.200 216.752,260.854 215.652,260.432 214.711 C 258.108 209.537,256.886 193.712,258.430 188.800 C 258.672 188.030,259.105 186.320,259.394 185.000 C 261.860 173.698,271.096 167.203,281.022 169.789 C 283.069 170.322,283.402 170.315,284.541 169.715 C 285.706 169.103,294.908 167.946,296.400 168.225 C 296.730 168.286,298.429 168.459,300.176 168.610 " stroke="none" fill="#84dbfb" fill-rule="evenodd"></path><path id="path1" d="M0.000 91.600 C 0.000 146.335,0.146 183.200,0.364 183.200 C 0.814 183.200,1.476 179.024,1.813 174.061 C 1.952 172.005,2.325 169.451,2.641 168.385 C 2.958 167.320,3.378 165.042,3.575 163.324 C 3.771 161.606,4.203 159.210,4.534 158.000 C 4.865 156.790,5.319 154.900,5.542 153.800 C 6.168 150.721,7.245 146.790,8.008 144.800 C 8.388 143.810,8.819 142.199,8.967 141.220 C 9.114 140.241,9.400 139.240,9.603 138.997 C 9.805 138.753,10.244 137.574,10.579 136.377 C 11.575 132.817,13.199 128.241,13.613 127.827 C 13.826 127.614,14.000 127.164,14.000 126.826 C 14.000 126.237,15.208 123.465,16.835 120.321 C 17.256 119.507,17.600 118.629,17.600 118.369 C 17.600 117.890,22.906 107.139,24.594 104.200 C 25.099 103.320,25.982 101.790,26.556 100.800 C 27.130 99.810,27.867 98.427,28.194 97.727 C 28.521 97.027,28.973 96.340,29.200 96.200 C 29.427 96.060,29.869 95.332,30.182 94.582 C 30.495 93.832,30.949 92.989,31.190 92.709 C 31.431 92.429,32.343 91.120,33.218 89.800 C 35.850 85.826,36.651 84.670,37.852 83.106 C 38.483 82.285,39.810 80.519,40.800 79.183 C 50.422 66.200,66.223 50.407,79.203 40.800 C 80.540 39.810,82.148 38.595,82.775 38.100 C 83.402 37.605,84.054 37.200,84.224 37.200 C 84.394 37.200,84.818 36.926,85.166 36.591 C 86.467 35.341,88.926 33.600,89.393 33.600 C 89.659 33.600,90.202 33.240,90.600 32.800 C 90.998 32.360,91.473 32.000,91.654 32.000 C 91.836 32.000,93.004 31.325,94.251 30.500 C 97.321 28.468,98.760 27.620,104.000 24.749 C 104.770 24.327,106.480 23.364,107.800 22.610 C 109.120 21.855,110.491 21.229,110.846 21.219 C 111.201 21.209,111.950 20.840,112.509 20.400 C 113.069 19.960,113.789 19.600,114.109 19.600 C 114.430 19.600,115.136 19.251,115.678 18.825 C 116.220 18.398,117.189 17.922,117.832 17.766 C 118.474 17.611,119.630 17.165,120.400 16.776 C 123.775 15.072,126.257 14.000,126.826 14.000 C 127.164 14.000,127.614 13.826,127.827 13.613 C 128.241 13.199,132.817 11.575,136.377 10.579 C 137.574 10.244,138.753 9.805,138.997 9.603 C 139.240 9.400,140.241 9.114,141.220 8.967 C 142.199 8.819,143.810 8.388,144.800 8.008 C 146.786 7.246,150.711 6.171,153.800 5.541 C 154.900 5.317,157.150 4.803,158.800 4.399 C 160.450 3.995,163.134 3.539,164.764 3.386 C 166.394 3.232,168.284 2.876,168.964 2.595 C 169.644 2.313,173.170 1.865,176.800 1.599 C 183.554 1.103,184.000 1.028,184.000 0.376 C 184.000 0.142,149.220 0.000,92.000 0.000 L 0.000 0.000 0.000 91.600 M216.000 0.376 C 216.000 1.028,216.446 1.103,223.200 1.599 C 226.830 1.865,230.366 2.317,231.058 2.603 C 231.749 2.890,233.728 3.256,235.455 3.418 C 237.182 3.580,239.766 4.047,241.196 4.456 C 242.627 4.865,244.338 5.208,244.999 5.218 C 245.659 5.227,246.920 5.516,247.800 5.859 C 248.680 6.202,250.702 6.728,252.294 7.028 C 253.885 7.328,255.595 7.828,256.094 8.139 C 256.592 8.451,257.801 8.825,258.780 8.970 C 259.759 9.116,260.760 9.400,261.003 9.603 C 261.247 9.805,262.450 10.232,263.678 10.551 C 264.905 10.871,266.461 11.418,267.135 11.766 C 267.809 12.115,268.597 12.400,268.886 12.400 C 269.175 12.400,270.039 12.736,270.806 13.147 C 271.573 13.557,272.830 14.030,273.600 14.197 C 274.370 14.364,275.630 14.812,276.400 15.193 C 277.170 15.573,278.520 16.245,279.400 16.684 C 280.280 17.124,281.526 17.611,282.168 17.766 C 282.811 17.922,283.780 18.398,284.322 18.825 C 284.864 19.251,285.622 19.600,286.005 19.600 C 286.388 19.600,286.918 19.861,287.183 20.180 C 287.448 20.498,288.325 20.974,289.132 21.238 C 289.939 21.501,291.029 22.050,291.554 22.458 C 292.079 22.866,292.833 23.200,293.230 23.200 C 293.628 23.200,294.065 23.381,294.202 23.603 C 294.339 23.825,295.114 24.346,295.925 24.761 C 299.420 26.550,302.492 28.344,305.749 30.500 C 306.996 31.325,308.164 32.000,308.346 32.000 C 308.527 32.000,309.002 32.360,309.400 32.800 C 309.798 33.240,310.341 33.600,310.607 33.600 C 311.074 33.600,313.533 35.341,314.834 36.591 C 315.182 36.926,315.606 37.200,315.776 37.200 C 315.946 37.200,316.598 37.605,317.225 38.100 C 317.852 38.595,319.460 39.810,320.797 40.800 C 333.777 50.407,349.578 66.200,359.200 79.183 C 360.190 80.519,361.517 82.285,362.148 83.106 C 363.349 84.670,364.150 85.826,366.782 89.800 C 367.657 91.120,368.569 92.429,368.810 92.709 C 369.051 92.989,369.505 93.832,369.818 94.582 C 370.131 95.332,370.573 96.060,370.800 96.200 C 371.027 96.340,371.479 97.027,371.806 97.727 C 372.133 98.427,372.870 99.810,373.444 100.800 C 375.630 104.569,376.368 105.916,378.354 109.757 C 379.479 111.933,380.400 113.934,380.400 114.203 C 380.400 114.472,380.749 115.136,381.175 115.678 C 381.602 116.220,382.078 117.189,382.234 117.832 C 382.389 118.474,382.835 119.630,383.224 120.400 C 384.928 123.775,386.000 126.257,386.000 126.826 C 386.000 127.164,386.174 127.614,386.387 127.827 C 386.801 128.241,388.425 132.817,389.421 136.377 C 389.756 137.574,390.195 138.753,390.397 138.997 C 390.600 139.240,390.886 140.241,391.033 141.220 C 391.181 142.199,391.612 143.810,391.992 144.800 C 392.755 146.790,393.832 150.721,394.458 153.800 C 394.681 154.900,395.135 156.790,395.466 158.000 C 395.797 159.210,396.229 161.606,396.425 163.324 C 396.622 165.042,397.042 167.320,397.359 168.385 C 397.675 169.451,398.048 172.005,398.187 174.061 C 398.524 179.024,399.186 183.200,399.636 183.200 C 399.854 183.200,400.000 146.335,400.000 91.600 L 400.000 0.000 308.000 0.000 C 250.780 0.000,216.000 0.142,216.000 0.376 M180.596 110.306 C 178.935 111.515,177.669 114.764,177.290 118.788 C 176.754 124.479,177.518 138.127,178.545 141.200 C 178.655 141.530,179.033 142.835,179.384 144.100 C 180.060 146.537,180.572 146.976,181.018 145.500 C 182.049 142.091,187.975 136.008,191.259 134.988 C 191.776 134.827,192.650 134.380,193.200 133.996 C 193.750 133.611,195.145 133.168,196.300 133.011 C 197.455 132.854,198.400 132.670,198.400 132.604 C 198.400 132.226,196.148 130.000,195.766 130.000 C 195.515 130.000,194.673 129.505,193.895 128.900 C 193.117 128.295,191.970 127.440,191.346 127.000 C 186.390 123.502,181.600 115.733,181.600 111.192 C 181.600 109.992,181.341 109.764,180.596 110.306 M218.383 111.300 C 218.360 113.069,216.808 117.411,215.423 119.582 C 213.413 122.734,205.559 130.000,204.163 130.000 C 203.708 130.000,202.000 132.003,202.000 132.537 C 202.000 132.655,202.855 132.876,203.900 133.029 C 204.945 133.182,206.250 133.620,206.800 134.001 C 207.350 134.383,208.224 134.827,208.741 134.988 C 212.025 136.008,217.951 142.091,218.982 145.500 C 219.821 148.275,221.331 143.367,222.445 134.243 C 223.258 127.583,223.270 126.540,222.620 117.725 C 222.536 116.584,222.189 115.144,221.848 114.525 C 221.508 113.906,220.932 112.770,220.569 112.000 C 219.474 109.674,218.409 109.333,218.383 111.300 M0.000 308.400 L 0.000 400.000 92.000 400.000 C 154.933 400.000,184.000 399.870,184.000 399.587 C 184.000 398.954,183.456 398.865,176.800 398.405 C 173.390 398.169,169.700 397.722,168.600 397.411 C 167.500 397.100,165.610 396.737,164.400 396.604 C 163.190 396.471,160.760 396.027,159.000 395.617 C 157.240 395.207,154.900 394.687,153.800 394.461 C 150.688 393.823,146.777 392.750,144.800 391.992 C 143.810 391.612,142.199 391.181,141.220 391.033 C 140.241 390.886,139.239 390.599,138.994 390.395 C 138.749 390.192,137.425 389.763,136.052 389.443 C 134.678 389.123,133.340 388.689,133.077 388.478 C 132.815 388.268,131.574 387.802,130.320 387.443 C 129.067 387.084,127.931 386.612,127.797 386.395 C 127.663 386.178,127.251 386.000,126.882 386.000 C 126.245 386.000,123.550 384.836,120.321 383.165 C 119.507 382.744,118.629 382.400,118.369 382.400 C 117.830 382.400,106.822 376.927,103.800 375.157 C 102.700 374.512,101.260 373.706,100.600 373.365 C 99.010 372.543,97.013 371.328,94.251 369.500 C 93.004 368.675,91.836 368.000,91.654 368.000 C 91.473 368.000,90.998 367.640,90.600 367.200 C 90.202 366.760,89.659 366.400,89.393 366.400 C 89.127 366.400,88.258 365.905,87.461 365.300 C 86.664 364.695,85.010 363.480,83.786 362.600 C 81.729 361.121,80.001 359.827,74.860 355.913 C 65.158 348.527,49.119 331.996,40.800 320.808 C 39.810 319.477,38.483 317.715,37.852 316.894 C 36.651 315.330,35.850 314.174,33.218 310.200 C 32.343 308.880,31.431 307.571,31.190 307.291 C 30.949 307.011,30.495 306.168,30.182 305.418 C 29.869 304.668,29.427 303.940,29.200 303.800 C 28.973 303.660,28.521 302.973,28.194 302.273 C 27.867 301.573,27.130 300.190,26.556 299.200 C 24.370 295.431,23.632 294.084,21.646 290.243 C 20.521 288.067,19.600 286.066,19.600 285.797 C 19.600 285.528,19.251 284.864,18.825 284.322 C 18.398 283.780,17.922 282.811,17.766 282.168 C 17.502 281.078,17.213 280.426,15.250 276.500 C 14.838 275.675,14.364 274.370,14.197 273.600 C 14.030 272.830,13.557 271.573,13.147 270.806 C 12.736 270.039,12.400 269.175,12.400 268.886 C 12.400 268.597,12.115 267.809,11.766 267.135 C 11.418 266.461,10.871 264.905,10.551 263.678 C 10.232 262.450,9.805 261.247,9.603 261.003 C 9.400 260.760,9.110 259.759,8.957 258.780 C 8.804 257.801,8.346 256.373,7.939 255.606 C 7.533 254.839,7.200 253.720,7.200 253.118 C 7.200 252.517,6.750 250.646,6.200 248.961 C 5.650 247.276,5.200 245.375,5.200 244.736 C 5.200 244.097,4.862 242.545,4.449 241.287 C 4.036 240.029,3.586 237.740,3.448 236.200 C 3.311 234.660,2.944 232.567,2.633 231.549 C 2.322 230.531,1.953 228.011,1.813 225.949 C 1.476 220.976,0.814 216.800,0.364 216.800 C 0.146 216.800,0.000 253.665,0.000 308.400 M398.857 219.500 C 398.628 220.985,398.327 223.887,398.187 225.949 C 398.047 228.011,397.678 230.531,397.367 231.549 C 397.056 232.567,396.689 234.660,396.552 236.200 C 396.414 237.740,395.964 240.029,395.551 241.287 C 395.138 242.545,394.800 244.097,394.800 244.736 C 394.800 245.375,394.350 247.276,393.800 248.961 C 393.250 250.646,392.800 252.517,392.800 253.118 C 392.800 253.720,392.467 254.839,392.061 255.606 C 391.654 256.373,391.196 257.801,391.043 258.780 C 390.890 259.759,390.600 260.760,390.397 261.003 C 390.195 261.247,389.768 262.450,389.449 263.678 C 389.129 264.905,388.582 266.461,388.234 267.135 C 387.885 267.809,387.600 268.597,387.600 268.886 C 387.600 269.175,387.264 270.039,386.853 270.806 C 386.443 271.573,385.970 272.830,385.803 273.600 C 385.636 274.370,385.162 275.675,384.750 276.500 C 382.787 280.426,382.498 281.078,382.234 282.168 C 382.078 282.811,381.602 283.780,381.175 284.322 C 380.749 284.864,380.400 285.528,380.400 285.797 C 380.400 286.066,379.479 288.067,378.354 290.243 C 376.368 294.084,375.630 295.431,373.444 299.200 C 372.870 300.190,372.133 301.573,371.806 302.273 C 371.479 302.973,371.027 303.660,370.800 303.800 C 370.573 303.940,370.131 304.668,369.818 305.418 C 369.505 306.168,369.051 307.011,368.810 307.291 C 368.569 307.571,367.657 308.880,366.782 310.200 C 364.150 314.174,363.349 315.330,362.148 316.894 C 361.517 317.715,360.190 319.477,359.200 320.808 C 349.438 333.937,333.646 349.727,320.805 359.200 C 319.463 360.190,317.852 361.405,317.225 361.900 C 316.598 362.395,315.946 362.800,315.776 362.800 C 315.606 362.800,315.182 363.074,314.834 363.409 C 313.533 364.659,311.074 366.400,310.607 366.400 C 310.341 366.400,309.798 366.760,309.400 367.200 C 309.002 367.640,308.527 368.000,308.346 368.000 C 308.164 368.000,306.996 368.675,305.749 369.500 C 302.987 371.328,300.990 372.543,299.400 373.365 C 298.740 373.706,297.300 374.512,296.200 375.157 C 293.178 376.927,282.170 382.400,281.631 382.400 C 281.371 382.400,280.448 382.760,279.579 383.200 C 275.551 385.241,274.912 385.519,273.600 385.803 C 272.830 385.970,271.573 386.443,270.806 386.853 C 270.039 387.264,269.175 387.600,268.886 387.600 C 268.597 387.600,267.809 387.885,267.135 388.234 C 266.461 388.582,264.905 389.129,263.678 389.449 C 262.450 389.768,261.247 390.195,261.003 390.397 C 260.760 390.600,259.759 390.884,258.780 391.030 C 257.801 391.175,256.592 391.549,256.094 391.861 C 255.595 392.172,253.885 392.672,252.294 392.972 C 250.702 393.272,248.680 393.798,247.800 394.141 C 246.920 394.484,245.644 394.773,244.964 394.782 C 244.284 394.792,242.844 395.074,241.764 395.408 C 240.684 395.742,238.360 396.202,236.600 396.430 C 234.840 396.657,232.500 397.098,231.400 397.410 C 230.300 397.721,226.610 398.169,223.200 398.405 C 216.544 398.865,216.000 398.954,216.000 399.587 C 216.000 399.870,245.067 400.000,308.000 400.000 L 400.000 400.000 400.000 308.400 C 400.000 253.665,399.854 216.800,399.636 216.800 C 399.436 216.800,399.085 218.015,398.857 219.500 M86.915 238.147 C 86.428 238.836,85.562 240.390,84.990 241.600 L 83.949 243.800 84.107 254.600 C 84.232 263.109,84.397 265.739,84.885 267.000 C 85.226 267.880,85.634 269.846,85.792 271.369 C 85.959 272.981,86.381 274.570,86.802 275.169 C 87.299 275.878,87.607 277.314,87.789 279.771 C 87.934 281.736,88.290 283.806,88.580 284.371 C 88.870 284.937,89.240 286.565,89.403 287.990 C 89.566 289.414,89.956 290.972,90.270 291.450 C 90.583 291.929,90.944 293.643,91.071 295.260 C 91.204 296.955,91.599 298.708,92.004 299.400 C 92.390 300.060,92.828 301.456,92.978 302.502 C 93.127 303.548,93.500 304.886,93.805 305.475 C 94.111 306.064,94.480 307.503,94.626 308.673 C 94.974 311.456,95.483 311.379,95.778 308.500 C 95.908 307.235,96.274 304.850,96.593 303.200 C 96.912 301.550,97.360 298.325,97.589 296.034 C 97.818 293.742,98.173 291.222,98.379 290.434 C 98.584 289.645,99.031 286.570,99.371 283.600 C 99.711 280.630,100.160 277.614,100.367 276.898 C 101.419 273.274,101.358 269.276,100.207 266.417 C 98.711 262.702,99.049 261.575,101.832 260.979 C 104.017 260.510,104.608 259.130,103.000 258.248 C 98.641 255.857,93.492 251.333,91.565 248.200 C 91.023 247.320,90.359 246.240,90.089 245.800 C 89.063 244.128,88.726 242.910,88.508 240.087 C 88.243 236.667,88.091 236.481,86.915 238.147 M311.880 237.200 C 311.763 237.530,311.573 238.976,311.457 240.413 C 311.192 243.702,310.934 244.339,308.230 248.400 C 306.867 250.445,301.242 255.998,300.531 255.999 C 300.273 256.000,299.551 256.405,298.928 256.900 C 298.304 257.395,297.435 258.000,296.997 258.244 C 295.388 259.139,295.984 260.511,298.185 260.979 C 300.794 261.532,301.366 262.979,300.050 265.698 C 299.044 267.774,298.954 270.461,299.769 274.075 C 300.083 275.464,300.541 278.580,300.789 281.000 C 301.037 283.420,301.410 286.045,301.617 286.834 C 301.825 287.622,302.180 290.142,302.406 292.434 C 302.632 294.725,303.069 297.770,303.377 299.200 C 303.685 300.630,304.063 303.420,304.216 305.400 C 304.540 309.592,304.982 310.842,305.300 308.469 C 305.420 307.578,305.803 306.277,306.151 305.578 C 306.500 304.879,306.900 303.384,307.042 302.254 C 307.184 301.124,307.614 299.660,307.999 299.000 C 308.383 298.340,308.806 296.560,308.939 295.045 C 309.072 293.530,309.427 291.910,309.728 291.445 C 310.030 290.980,310.403 289.340,310.557 287.800 C 310.711 286.260,311.188 283.856,311.618 282.458 C 312.048 281.060,312.400 278.879,312.400 277.612 C 312.400 275.920,312.611 275.040,313.193 274.300 C 313.742 273.602,314.064 272.385,314.240 270.346 C 314.380 268.726,314.782 266.950,315.133 266.400 C 315.664 265.567,315.798 263.617,315.932 254.693 C 316.108 242.998,315.872 241.511,313.408 238.800 C 312.909 238.250,312.408 237.530,312.296 237.200 C 312.116 236.667,312.069 236.667,311.880 237.200 M124.675 239.887 C 124.102 245.370,120.251 250.849,113.293 256.080 C 112.210 256.895,110.837 257.782,110.242 258.053 C 108.390 258.898,108.946 260.397,111.400 261.170 C 113.703 261.895,114.148 262.929,112.931 264.723 C 111.925 266.205,112.018 273.361,113.123 279.600 C 113.571 282.130,114.052 285.550,114.192 287.200 C 114.332 288.850,114.626 290.886,114.845 291.723 C 115.064 292.561,115.492 295.441,115.797 298.123 C 116.829 307.223,117.997 310.664,118.574 306.311 C 118.728 305.152,119.127 303.901,119.462 303.532 C 119.796 303.162,120.218 301.670,120.398 300.216 C 120.578 298.762,120.984 297.174,121.300 296.686 C 121.617 296.199,121.994 294.540,122.139 293.000 C 122.285 291.460,122.763 289.059,123.202 287.664 C 123.641 286.270,124.008 284.200,124.018 283.064 C 124.027 281.929,124.307 280.280,124.640 279.400 C 124.973 278.520,125.503 276.643,125.817 275.229 C 126.131 273.816,126.649 271.926,126.968 271.029 C 127.287 270.133,127.659 267.820,127.796 265.889 C 127.932 263.957,128.304 261.640,128.622 260.738 C 130.360 255.812,128.830 241.444,126.299 238.912 L 124.921 237.534 124.675 239.887 M273.593 239.040 C 270.865 242.064,269.727 257.768,271.772 264.164 C 272.117 265.244,272.400 266.905,272.400 267.855 C 272.400 268.806,272.671 270.262,273.002 271.092 C 273.332 271.921,273.862 273.770,274.179 275.200 C 274.495 276.630,275.027 278.520,275.360 279.400 C 275.693 280.280,275.973 281.929,275.982 283.064 C 275.992 284.200,276.359 286.270,276.798 287.664 C 277.237 289.059,277.715 291.460,277.861 293.000 C 278.006 294.540,278.383 296.199,278.700 296.686 C 279.016 297.174,279.422 298.762,279.602 300.216 C 279.782 301.670,280.198 303.161,280.525 303.530 C 280.852 303.898,281.273 305.175,281.460 306.367 C 282.207 311.127,283.392 309.004,284.234 301.400 C 284.550 298.540,284.979 295.660,285.186 295.000 C 285.393 294.340,285.675 292.450,285.812 290.800 C 285.950 289.150,286.394 285.820,286.799 283.400 C 287.205 280.980,287.646 277.830,287.780 276.400 C 287.914 274.970,288.205 272.887,288.426 271.772 C 288.747 270.146,288.706 269.511,288.216 268.572 C 287.880 267.927,287.598 266.950,287.590 266.400 C 287.581 265.850,287.310 265.051,286.987 264.624 C 285.638 262.839,286.282 261.680,289.000 261.000 C 290.876 260.531,291.565 258.697,290.046 258.215 C 288.899 257.851,280.800 251.695,280.800 251.187 C 280.800 251.032,280.106 250.026,279.258 248.952 C 277.235 246.390,275.660 242.771,275.295 239.840 L 275.000 237.480 273.593 239.040 " stroke="none" fill="#faf9f9" fill-rule="evenodd"></path><path id="path2" d="M206.237 61.822 C 205.007 62.824,204.000 63.739,204.000 63.856 C 204.000 63.973,204.932 63.326,206.072 62.419 C 208.469 60.510,209.262 60.488,209.637 62.319 C 209.785 63.041,210.176 63.940,210.506 64.316 C 210.835 64.692,211.216 65.360,211.350 65.800 C 211.846 67.416,215.782 71.179,218.395 72.535 C 221.050 73.913,223.468 76.534,223.620 78.200 C 223.686 78.930,223.709 78.935,223.883 78.262 C 224.262 76.793,221.677 73.809,218.630 72.199 C 214.355 69.939,212.109 67.159,209.661 61.100 C 209.073 59.644,208.854 59.690,206.237 61.822 M201.600 65.000 C 200.855 65.550,200.425 66.000,200.645 66.000 C 200.865 66.000,201.655 65.550,202.400 65.000 C 203.145 64.450,203.575 64.000,203.355 64.000 C 203.135 64.000,202.345 64.450,201.600 65.000 M198.800 66.600 C 198.526 66.930,198.095 67.200,197.841 67.200 C 197.133 67.200,192.517 69.573,193.200 69.586 C 193.530 69.592,194.344 69.265,195.010 68.859 C 195.675 68.454,196.875 67.905,197.678 67.640 C 199.081 67.177,200.531 66.000,199.698 66.000 C 199.478 66.000,199.074 66.270,198.800 66.600 M190.456 70.413 C 189.231 71.433,189.853 71.424,191.400 70.400 C 192.060 69.963,192.330 69.610,192.000 69.616 C 191.670 69.622,190.975 69.981,190.456 70.413 M187.491 72.000 C 186.931 72.440,186.341 72.800,186.178 72.800 C 185.606 72.800,181.779 75.562,179.983 77.271 C 178.155 79.011,177.197 80.302,175.958 82.700 C 174.887 84.773,175.421 84.217,177.318 81.285 C 179.209 78.361,184.947 73.200,186.306 73.200 C 186.492 73.200,187.255 72.750,188.000 72.200 C 188.745 71.650,189.165 71.200,188.932 71.200 C 188.699 71.200,188.050 71.560,187.491 72.000 M224.054 81.071 C 223.991 83.033,224.764 84.017,226.329 83.964 C 227.353 83.929,227.343 83.911,226.105 83.554 C 224.827 83.185,224.660 82.898,224.266 80.400 C 224.173 79.808,224.087 80.082,224.054 81.071 M184.496 113.111 C 183.055 114.315,182.841 115.564,183.795 117.200 C 184.116 117.750,184.643 118.753,184.965 119.429 C 186.201 122.020,194.621 129.600,196.263 129.600 C 196.472 129.600,197.254 130.230,198.001 131.001 C 199.636 132.688,199.365 133.123,196.466 133.467 C 195.326 133.602,194.007 134.047,193.535 134.456 C 193.064 134.865,192.413 135.200,192.091 135.200 C 190.563 135.200,183.200 141.207,183.200 142.454 C 183.200 142.720,182.890 143.280,182.510 143.699 C 182.131 144.118,181.636 145.032,181.410 145.731 C 180.308 149.140,178.233 144.779,177.570 137.663 C 177.338 135.160,176.958 132.637,176.728 132.056 C 175.967 130.139,175.838 122.023,176.536 120.027 C 177.149 118.277,177.106 117.600,176.383 117.600 C 175.994 117.600,168.629 120.977,167.600 121.627 C 167.270 121.835,166.550 122.210,166.000 122.459 C 164.383 123.192,154.498 127.958,150.666 129.853 C 148.722 130.814,146.950 131.600,146.729 131.600 C 146.507 131.600,145.869 131.960,145.309 132.400 C 144.750 132.840,143.981 133.200,143.600 133.200 C 142.209 133.200,140.880 134.736,140.421 136.876 C 140.177 138.014,139.821 139.138,139.631 139.373 C 139.440 139.608,139.013 140.790,138.680 142.000 C 138.348 143.210,137.789 145.055,137.438 146.100 C 135.016 153.310,134.538 155.182,134.790 156.468 C 135.231 158.715,143.977 167.620,150.126 172.083 C 155.433 175.936,156.685 176.681,161.400 178.796 C 162.280 179.190,163.830 179.893,164.844 180.357 C 165.858 180.820,166.848 181.206,167.044 181.213 C 167.240 181.219,168.300 181.668,169.400 182.209 C 170.500 182.750,171.708 183.194,172.085 183.196 C 172.462 183.198,173.632 183.536,174.685 183.947 C 175.738 184.357,177.500 184.821,178.600 184.976 C 179.700 185.131,181.353 185.509,182.273 185.815 C 187.622 187.596,212.746 187.603,217.000 185.826 C 217.701 185.533,219.428 185.162,220.837 185.003 C 222.247 184.843,224.120 184.395,225.000 184.007 C 225.880 183.618,227.288 183.178,228.129 183.027 C 228.970 182.876,230.230 182.404,230.929 181.978 C 231.628 181.552,232.470 181.197,232.800 181.189 C 233.130 181.181,234.300 180.732,235.400 180.191 C 236.500 179.650,237.603 179.206,237.851 179.204 C 238.099 179.202,238.526 178.930,238.800 178.600 C 239.074 178.270,239.691 178.000,240.171 178.000 C 240.652 178.000,241.655 177.550,242.400 177.000 C 243.145 176.450,243.945 175.988,244.178 175.973 C 244.410 175.959,245.344 175.374,246.252 174.673 C 247.161 173.973,248.661 172.860,249.585 172.200 C 253.838 169.162,259.778 163.683,263.288 159.559 C 265.976 156.402,265.968 156.258,262.563 146.100 C 262.213 145.055,261.672 143.300,261.361 142.200 C 261.049 141.100,260.526 139.633,260.197 138.940 C 259.869 138.246,259.599 137.346,259.599 136.940 C 259.595 135.439,258.095 133.656,256.465 133.217 C 255.600 132.985,254.670 132.526,254.398 132.197 C 254.125 131.869,253.670 131.600,253.385 131.600 C 253.101 131.600,251.278 130.812,249.334 129.849 C 245.180 127.792,239.581 125.113,237.600 124.236 C 236.830 123.895,235.930 123.452,235.600 123.251 C 235.270 123.050,234.550 122.688,234.000 122.446 C 233.450 122.204,232.730 121.835,232.400 121.627 C 231.371 120.977,224.006 117.600,223.617 117.600 C 222.894 117.600,222.852 118.278,223.466 120.027 C 224.162 122.007,224.009 130.746,223.239 133.000 C 223.013 133.660,222.659 136.110,222.452 138.445 C 222.245 140.779,221.883 143.029,221.648 143.445 C 221.413 143.860,220.955 144.875,220.631 145.700 C 219.899 147.562,219.326 147.599,218.587 145.832 C 216.782 141.511,210.443 135.200,207.909 135.200 C 207.587 135.200,206.934 134.863,206.459 134.451 C 205.984 134.039,204.742 133.587,203.698 133.445 C 200.674 133.034,200.446 132.706,202.022 131.036 C 202.767 130.246,203.543 129.600,203.747 129.600 C 205.232 129.600,213.884 121.696,215.132 119.200 C 215.407 118.650,215.892 117.750,216.210 117.200 C 218.714 112.870,214.523 111.198,210.400 114.883 C 205.998 118.818,198.293 120.630,195.742 118.331 C 195.334 117.963,194.541 117.548,193.980 117.408 C 193.420 117.268,191.710 115.997,190.180 114.584 C 187.081 111.718,186.380 111.537,184.496 113.111 M83.867 197.467 C 83.720 197.613,83.603 197.928,83.606 198.167 C 83.609 198.405,83.777 198.340,83.977 198.023 C 84.388 197.374,84.766 197.518,88.084 199.584 C 89.120 200.230,90.650 200.856,91.484 200.976 C 92.781 201.163,92.840 201.142,91.895 200.830 C 90.181 200.266,87.101 198.739,86.046 197.931 C 85.052 197.169,84.320 197.013,83.867 197.467 M270.894 197.700 C 270.671 197.975,270.360 199.370,270.203 200.800 C 270.046 202.230,269.666 204.383,269.359 205.584 C 269.051 206.785,268.828 208.945,268.863 210.384 L 268.926 213.000 269.212 210.400 C 269.369 208.970,269.700 206.630,269.947 205.200 C 270.194 203.770,270.533 201.610,270.700 200.400 C 271.033 197.998,272.117 197.279,273.533 198.521 C 274.490 199.361,278.539 201.200,279.439 201.202 C 279.857 201.204,280.740 201.487,281.400 201.832 C 282.060 202.177,283.500 202.526,284.600 202.609 C 285.700 202.691,286.150 202.667,285.600 202.556 C 285.050 202.445,283.564 202.004,282.298 201.577 C 281.033 201.150,279.716 200.800,279.374 200.800 C 278.446 200.800,274.307 198.790,273.484 197.940 C 272.659 197.086,271.478 196.977,270.894 197.700 M99.600 198.261 C 99.600 198.625,100.350 199.615,101.267 200.461 C 102.183 201.308,102.858 202.060,102.767 202.132 C 102.675 202.205,101.970 202.471,101.200 202.723 L 99.800 203.182 101.400 202.960 C 103.757 202.633,104.020 202.132,102.496 200.875 C 100.863 199.528,100.863 199.200,102.494 199.200 L 103.788 199.200 102.296 198.400 C 100.480 197.427,99.600 197.382,99.600 198.261 M286.615 197.975 C 286.488 198.182,286.631 198.497,286.933 198.675 C 287.236 198.854,287.696 199.405,287.956 199.900 C 288.216 200.395,288.647 200.786,288.914 200.768 C 289.280 200.745,289.277 200.687,288.900 200.535 C 287.565 199.996,288.381 198.760,289.900 199.020 L 291.400 199.277 289.815 198.438 C 288.112 197.537,286.987 197.374,286.615 197.975 M101.200 198.400 C 101.200 198.620,100.930 198.800,100.600 198.800 C 100.270 198.800,100.000 198.620,100.000 198.400 C 100.000 198.180,100.270 198.000,100.600 198.000 C 100.930 198.000,101.200 198.180,101.200 198.400 M82.868 200.627 C 82.575 201.712,82.277 203.500,82.205 204.600 C 82.133 205.700,82.157 206.060,82.257 205.400 C 82.357 204.740,82.713 203.349,83.049 202.309 C 83.384 201.269,83.600 200.022,83.529 199.536 C 83.440 198.929,83.234 199.269,82.868 200.627 M106.600 200.207 C 108.140 200.751,109.952 201.197,110.627 201.198 C 111.302 201.199,112.742 201.458,113.827 201.773 C 114.912 202.088,116.700 202.451,117.800 202.579 C 119.687 202.800,119.642 202.768,117.000 202.021 C 115.460 201.586,113.120 201.119,111.800 200.984 C 110.480 200.849,108.557 200.392,107.526 199.969 C 106.495 199.546,105.235 199.204,104.726 199.208 C 104.217 199.213,105.060 199.662,106.600 200.207 M293.000 199.840 C 295.913 200.942,296.980 201.201,298.397 201.150 C 299.594 201.108,299.506 201.055,297.800 200.794 C 296.700 200.625,295.260 200.199,294.600 199.846 C 293.940 199.493,292.950 199.212,292.400 199.220 C 291.584 199.232,291.694 199.346,293.000 199.840 M289.927 201.247 C 290.537 202.064,289.923 202.653,288.200 202.905 C 287.077 203.069,287.093 203.084,288.451 203.140 C 290.366 203.219,291.261 202.261,290.188 201.280 C 289.577 200.722,289.531 200.716,289.927 201.247 M94.800 202.000 C 95.790 202.415,97.230 202.746,98.000 202.734 C 99.394 202.712,99.392 202.711,97.719 202.380 C 96.794 202.198,95.681 201.857,95.245 201.624 C 94.809 201.391,94.126 201.210,93.726 201.222 C 93.327 201.235,93.810 201.585,94.800 202.000 M301.800 201.809 C 302.900 202.115,304.879 202.569,306.198 202.818 C 307.517 203.067,309.047 203.524,309.598 203.833 C 310.149 204.142,311.124 204.582,311.765 204.812 C 314.681 205.857,311.898 206.054,294.553 206.032 C 274.728 206.006,275.073 205.977,273.072 207.811 L 271.600 209.159 271.600 213.810 C 271.600 218.780,272.512 220.849,274.669 220.775 C 275.247 220.755,275.204 220.671,274.464 220.374 C 272.399 219.547,272.027 218.547,272.019 213.800 C 272.012 209.081,272.075 208.850,273.600 208.076 C 274.150 207.797,275.050 207.308,275.600 206.991 C 276.975 206.196,311.728 206.619,313.004 207.445 C 313.518 207.778,314.019 207.836,314.392 207.605 C 315.784 206.745,310.539 203.198,307.000 202.604 C 306.120 202.457,304.721 202.081,303.892 201.768 C 303.062 201.456,301.802 201.212,301.092 201.227 C 299.946 201.251,300.025 201.317,301.800 201.809 M120.600 203.143 C 124.429 204.406,127.166 206.750,129.073 210.400 C 129.360 210.950,129.591 211.130,129.585 210.800 C 129.557 209.138,125.761 204.880,123.736 204.242 C 123.261 204.092,122.654 203.706,122.387 203.385 C 122.120 203.063,121.429 202.818,120.851 202.840 C 119.953 202.874,119.916 202.918,120.600 203.143 M81.765 214.200 C 81.766 218.160,81.826 219.726,81.898 217.680 C 81.971 215.634,81.971 212.394,81.898 210.480 C 81.824 208.566,81.765 210.240,81.765 214.200 M274.900 208.963 C 273.559 210.378,273.812 210.638,275.373 209.447 C 276.682 208.449,276.976 208.400,281.654 208.400 L 286.562 208.400 287.832 209.631 C 289.066 210.827,289.097 210.940,288.891 213.531 C 288.550 217.828,288.361 217.956,282.200 218.074 L 277.000 218.174 282.194 218.300 L 287.388 218.425 288.494 217.158 C 289.937 215.505,290.160 210.728,288.827 210.014 C 288.402 209.787,287.940 209.241,287.800 208.800 C 287.374 207.457,276.194 207.598,274.900 208.963 M291.829 209.429 C 291.483 209.774,291.216 210.539,291.236 211.129 C 291.270 212.150,291.290 212.139,291.648 210.900 C 292.358 208.440,296.370 209.403,295.822 211.902 C 295.337 214.106,292.721 215.231,292.007 213.543 L 291.608 212.600 291.704 213.600 C 291.810 214.704,296.974 214.933,297.721 213.867 C 297.906 213.603,297.957 213.922,297.839 214.600 C 297.713 215.321,297.904 216.359,298.318 217.200 L 299.008 218.600 305.771 218.600 L 312.535 218.600 313.238 217.400 C 314.122 215.892,314.207 212.361,313.397 210.795 C 312.552 209.160,310.456 208.690,304.772 208.861 C 299.727 209.012,299.072 209.262,298.184 211.373 L 297.691 212.546 296.865 210.927 C 296.237 209.696,295.734 209.247,294.769 209.054 C 292.913 208.683,292.525 208.732,291.829 209.429 M312.565 210.500 C 313.289 211.616,313.478 215.819,312.871 217.300 L 312.420 218.400 305.797 218.400 C 298.105 218.400,298.600 218.712,298.600 213.868 C 298.600 209.589,298.582 209.600,306.067 209.600 C 311.761 209.600,312.003 209.634,312.565 210.500 M273.728 213.600 C 273.728 215.030,273.801 215.615,273.889 214.900 C 273.978 214.185,273.978 213.015,273.889 212.300 C 273.801 211.585,273.728 212.170,273.728 213.600 M129.759 216.400 C 129.729 220.103,129.539 221.867,129.026 223.200 C 128.646 224.190,128.091 225.963,127.794 227.139 C 127.497 228.316,126.971 229.874,126.626 230.603 C 126.268 231.356,126.120 232.245,126.281 232.664 C 126.518 233.279,126.614 233.203,126.862 232.200 C 128.147 227.006,128.516 225.736,129.021 224.760 C 129.919 223.024,130.589 216.598,130.164 213.800 C 129.831 211.602,129.797 211.821,129.759 216.400 M317.051 211.917 C 316.894 212.172,316.661 213.330,316.535 214.490 C 316.408 215.651,316.013 217.050,315.657 217.600 C 315.301 218.150,314.828 218.949,314.605 219.375 C 313.965 220.599,311.855 220.896,305.200 220.700 C 298.168 220.493,297.935 220.433,296.832 218.564 C 296.389 217.814,295.832 217.200,295.595 217.200 C 294.814 217.200,297.728 220.416,298.776 220.712 C 299.339 220.870,302.897 221.000,306.682 221.000 L 313.563 221.000 315.182 219.315 C 316.555 217.885,316.801 217.372,316.806 215.915 C 316.809 214.972,316.987 213.930,317.200 213.600 C 317.863 212.574,317.681 218.910,317.000 220.538 C 316.670 221.328,316.410 222.295,316.422 222.687 C 316.435 223.079,316.785 222.590,317.200 221.600 C 318.307 218.963,318.171 210.106,317.051 211.917 M268.520 215.200 C 268.520 216.410,268.595 216.905,268.687 216.300 C 268.778 215.695,268.778 214.705,268.687 214.100 C 268.595 213.495,268.520 213.990,268.520 215.200 M274.000 216.965 C 274.000 217.590,275.028 218.539,275.487 218.338 C 275.659 218.262,275.395 217.801,274.900 217.314 C 274.321 216.744,274.000 216.620,274.000 216.965 M290.843 218.612 C 290.161 219.389,289.197 220.188,288.701 220.387 C 288.167 220.602,288.049 220.760,288.411 220.775 C 289.256 220.810,290.595 219.812,291.605 218.393 C 292.759 216.773,292.356 216.888,290.843 218.612 M268.854 219.227 C 268.825 220.232,269.052 221.942,269.361 223.027 C 269.669 224.112,270.042 225.720,270.190 226.600 C 270.338 227.480,270.701 228.576,270.997 229.036 C 271.293 229.496,271.612 230.396,271.707 231.036 L 271.880 232.200 271.940 230.989 C 271.973 230.323,271.754 229.423,271.454 228.989 C 271.004 228.340,269.765 222.842,269.066 218.400 C 268.980 217.850,268.884 218.222,268.854 219.227 M278.500 221.097 C 280.205 221.172,282.995 221.172,284.700 221.097 C 286.405 221.022,285.010 220.961,281.600 220.961 C 278.190 220.961,276.795 221.022,278.500 221.097 M82.146 223.400 C 82.234 224.280,82.598 225.630,82.955 226.400 C 83.691 227.988,83.561 227.072,82.584 223.800 C 81.997 221.835,81.990 221.828,82.146 223.400 M315.923 224.600 C 315.787 225.260,315.396 226.520,315.055 227.400 C 314.714 228.280,314.451 229.810,314.470 230.800 L 314.505 232.600 314.809 230.400 C 314.976 229.190,315.412 227.507,315.779 226.659 C 316.145 225.812,316.383 224.732,316.307 224.259 C 316.195 223.554,316.126 223.615,315.923 224.600 M83.654 229.313 C 83.618 230.326,83.798 230.901,84.200 231.055 C 84.530 231.182,84.814 231.581,84.832 231.943 C 84.852 232.377,84.933 232.426,85.069 232.087 C 85.182 231.805,85.005 231.162,84.675 230.658 C 84.344 230.154,83.992 229.305,83.892 228.771 C 83.763 228.089,83.693 228.251,83.654 229.313 M105.179 260.193 C 104.853 260.519,103.630 260.967,102.462 261.188 C 99.078 261.830,98.898 262.356,100.642 266.499 C 101.810 269.275,101.764 274.876,100.533 279.586 C 100.215 280.804,99.781 283.764,99.570 286.164 C 99.358 288.564,98.933 291.444,98.624 292.564 C 98.315 293.684,97.945 296.310,97.802 298.400 C 97.658 300.490,97.293 303.280,96.990 304.600 C 96.687 305.920,96.331 307.840,96.200 308.867 C 95.982 310.572,94.800 312.526,94.800 311.182 C 94.800 310.899,94.697 310.769,94.572 310.895 C 94.447 311.020,94.717 311.853,95.172 312.745 C 95.627 313.638,96.000 314.642,96.000 314.976 C 96.000 315.720,97.789 320.454,98.836 322.479 C 99.256 323.293,99.600 324.317,99.600 324.755 C 99.600 325.815,101.504 326.080,107.977 325.922 L 112.954 325.800 113.640 323.485 C 114.018 322.212,114.515 320.943,114.746 320.665 C 114.976 320.388,115.285 319.408,115.432 318.488 C 115.579 317.568,115.939 316.617,116.230 316.375 C 116.522 316.133,116.883 315.094,117.032 314.067 C 117.180 313.040,117.448 311.917,117.627 311.571 C 117.829 311.180,117.584 309.927,116.978 308.257 C 116.327 306.464,115.859 303.950,115.570 300.686 C 115.332 297.999,114.892 294.900,114.592 293.800 C 114.292 292.700,113.933 290.180,113.793 288.200 C 113.654 286.220,113.279 283.534,112.961 282.230 C 112.642 280.927,112.205 277.715,111.991 275.093 C 111.777 272.472,111.511 270.180,111.400 270.000 C 111.151 269.597,112.348 264.770,112.852 264.149 C 113.990 262.743,111.217 260.800,108.072 260.800 C 107.646 260.800,107.074 260.530,106.800 260.200 C 106.178 259.450,105.922 259.449,105.179 260.193 M293.186 260.129 C 292.864 260.420,291.432 260.886,290.005 261.164 C 286.404 261.867,286.133 262.230,287.398 264.654 C 287.726 265.284,287.996 266.181,287.998 266.646 C 287.999 267.111,288.380 267.975,288.844 268.565 C 289.671 269.617,289.675 269.689,289.022 272.287 C 288.656 273.744,288.187 276.869,287.980 279.230 C 287.773 281.591,287.345 284.575,287.029 285.861 C 286.713 287.148,286.330 289.910,286.177 292.000 C 286.025 294.090,285.659 296.602,285.364 297.583 C 285.069 298.564,284.719 300.904,284.586 302.783 C 284.192 308.336,283.688 310.400,282.729 310.400 C 282.117 310.400,281.982 310.574,282.185 311.100 C 282.334 311.485,282.624 312.687,282.831 313.772 C 283.038 314.857,283.450 316.027,283.748 316.372 C 284.046 316.717,284.409 317.626,284.553 318.390 C 284.698 319.155,285.192 320.557,285.651 321.506 C 286.148 322.532,286.416 323.711,286.312 324.415 C 286.109 325.800,285.347 325.662,294.100 325.822 C 300.234 325.934,300.400 325.915,300.400 325.112 C 300.400 324.659,300.739 323.548,301.152 322.644 C 302.364 319.995,304.000 315.629,304.000 315.043 C 304.000 314.745,304.338 313.714,304.752 312.751 C 305.695 310.554,306.260 308.171,305.547 309.400 C 304.853 310.594,304.788 310.627,304.384 309.988 C 304.180 309.665,304.006 308.500,303.998 307.400 C 303.990 306.300,303.718 304.230,303.393 302.800 C 303.068 301.370,302.539 297.860,302.218 295.000 C 301.896 292.140,301.450 289.170,301.226 288.400 C 301.003 287.630,300.645 285.020,300.432 282.600 C 300.220 280.180,299.763 277.120,299.418 275.800 C 298.469 272.167,298.534 267.694,299.563 265.773 C 301.200 262.719,300.801 261.807,297.559 261.192 C 296.402 260.973,295.159 260.525,294.796 260.197 C 293.992 259.469,293.920 259.466,293.186 260.129 " stroke="none" fill="#f5715a" fill-rule="evenodd"></path><path id="path3" d="M206.574 62.026 C 205.204 63.119,204.146 63.830,200.200 66.313 C 199.760 66.590,198.770 67.093,198.000 67.431 C 185.558 72.900,180.588 76.229,177.318 81.285 C 176.352 82.778,175.255 84.031,174.881 84.068 C 174.506 84.106,173.840 84.154,173.400 84.175 C 172.073 84.238,171.434 87.495,172.062 90.993 C 172.683 94.451,175.633 98.000,177.887 98.000 C 179.228 98.000,181.199 99.861,181.201 101.131 C 181.202 101.499,181.562 102.389,182.001 103.110 C 182.975 104.706,183.014 105.916,182.133 107.174 C 180.394 109.657,182.207 116.559,185.905 121.536 C 186.995 123.004,190.098 126.119,191.346 127.000 C 191.970 127.440,193.117 128.295,193.895 128.900 C 194.673 129.505,195.515 130.000,195.766 130.000 C 196.148 130.000,198.400 132.226,198.400 132.604 C 198.400 132.670,197.455 132.854,196.300 133.011 C 195.145 133.168,193.750 133.611,193.200 133.996 C 192.650 134.380,191.776 134.827,191.259 134.988 C 187.975 136.008,182.049 142.091,181.018 145.500 C 180.572 146.976,180.060 146.537,179.384 144.100 C 179.033 142.835,178.655 141.530,178.545 141.200 C 177.545 138.208,176.780 124.659,177.281 118.810 C 177.377 117.684,177.248 117.392,176.600 117.274 C 175.857 117.138,175.849 117.166,176.493 117.664 C 177.139 118.163,177.143 118.323,176.551 120.000 C 175.838 122.021,175.956 130.113,176.728 132.056 C 176.958 132.637,177.338 135.160,177.570 137.663 C 178.233 144.779,180.308 149.140,181.410 145.731 C 181.636 145.032,182.131 144.118,182.510 143.699 C 182.890 143.280,183.200 142.720,183.200 142.454 C 183.200 141.207,190.563 135.200,192.091 135.200 C 192.413 135.200,193.064 134.865,193.535 134.456 C 194.007 134.047,195.326 133.602,196.466 133.467 C 199.365 133.123,199.636 132.688,198.001 131.001 C 197.254 130.230,196.472 129.600,196.263 129.600 C 194.621 129.600,186.201 122.020,184.965 119.429 C 184.643 118.753,184.116 117.750,183.795 117.200 C 182.806 115.504,183.048 114.211,184.573 113.047 C 186.528 111.557,187.065 111.704,190.180 114.584 C 191.710 115.997,193.420 117.268,193.980 117.408 C 194.541 117.548,195.334 117.963,195.742 118.331 C 198.293 120.630,205.998 118.818,210.400 114.883 C 214.523 111.198,218.714 112.870,216.210 117.200 C 215.892 117.750,215.407 118.650,215.132 119.200 C 213.884 121.696,205.232 129.600,203.747 129.600 C 203.543 129.600,202.767 130.246,202.022 131.036 C 200.446 132.706,200.674 133.034,203.698 133.445 C 204.742 133.587,205.984 134.039,206.459 134.451 C 206.934 134.863,207.587 135.200,207.909 135.200 C 210.443 135.200,216.782 141.511,218.587 145.832 C 219.326 147.599,219.899 147.562,220.631 145.700 C 220.955 144.875,221.413 143.860,221.648 143.445 C 221.883 143.029,222.245 140.779,222.452 138.445 C 222.659 136.110,223.013 133.660,223.239 133.000 C 224.019 130.715,224.162 122.004,223.452 120.000 C 222.857 118.322,222.861 118.164,223.507 117.664 C 224.151 117.166,224.143 117.138,223.400 117.274 C 222.757 117.391,222.619 117.693,222.698 118.810 C 223.257 126.740,223.240 127.731,222.445 134.243 C 221.331 143.367,219.821 148.275,218.982 145.500 C 217.951 142.091,212.025 136.008,208.741 134.988 C 208.224 134.827,207.350 134.383,206.800 134.001 C 206.250 133.620,204.945 133.182,203.900 133.029 C 202.855 132.876,202.000 132.655,202.000 132.537 C 202.000 132.003,203.708 130.000,204.163 130.000 C 205.554 130.000,213.391 122.755,215.433 119.582 C 217.803 115.900,219.053 110.456,218.151 107.748 C 217.603 106.101,218.244 103.828,220.000 101.200 C 220.220 100.870,220.575 100.108,220.788 99.507 C 221.099 98.628,221.502 98.361,222.842 98.147 C 228.910 97.177,231.617 85.095,226.023 83.951 C 224.310 83.601,224.285 83.559,223.951 80.424 C 223.546 76.640,221.957 74.383,218.395 72.535 C 215.782 71.179,211.846 67.416,211.350 65.800 C 211.216 65.360,210.835 64.692,210.506 64.316 C 210.176 63.940,209.785 63.041,209.637 62.319 C 209.281 60.581,208.481 60.504,206.574 62.026 M155.400 127.227 C 154.740 127.650,154.380 127.996,154.600 127.995 C 154.820 127.995,155.540 127.637,156.200 127.200 C 156.860 126.763,157.220 126.417,157.000 126.432 C 156.780 126.447,156.060 126.804,155.400 127.227 M243.800 127.200 C 244.460 127.637,245.180 127.995,245.400 127.996 C 245.620 127.996,245.211 127.638,244.490 127.199 C 242.792 126.163,242.236 126.164,243.800 127.200 M144.600 132.427 C 143.940 132.850,143.605 133.197,143.856 133.198 C 144.106 133.199,144.736 132.846,145.256 132.413 C 146.445 131.423,146.159 131.429,144.600 132.427 M254.744 132.376 C 255.264 132.829,255.879 133.200,256.111 133.200 C 256.603 133.200,256.579 133.180,255.000 132.255 L 253.800 131.553 254.744 132.376 M135.665 150.617 C 134.995 152.088,135.123 152.402,135.847 151.065 C 136.186 150.440,136.388 149.854,136.296 149.763 C 136.205 149.671,135.921 150.056,135.665 150.617 M263.628 149.800 C 263.628 150.020,263.886 150.650,264.200 151.200 C 264.514 151.750,264.772 152.020,264.772 151.800 C 264.772 151.580,264.514 150.950,264.200 150.400 C 263.886 149.850,263.628 149.580,263.628 149.800 M136.800 160.125 C 136.800 160.194,137.385 160.779,138.100 161.425 L 139.400 162.600 138.225 161.300 C 137.130 160.088,136.800 159.816,136.800 160.125 M261.775 161.300 L 260.600 162.600 261.900 161.425 C 262.615 160.779,263.200 160.194,263.200 160.125 C 263.200 159.816,262.870 160.088,261.775 161.300 M256.400 166.600 C 255.428 167.590,254.723 168.400,254.833 168.400 C 254.943 168.400,255.828 167.590,256.800 166.600 C 257.772 165.610,258.477 164.800,258.367 164.800 C 258.257 164.800,257.372 165.610,256.400 166.600 M143.400 166.800 C 144.259 167.680,145.052 168.400,145.162 168.400 C 145.272 168.400,144.659 167.680,143.800 166.800 C 142.941 165.920,142.148 165.200,142.038 165.200 C 141.928 165.200,142.541 165.920,143.400 166.800 M248.967 172.629 L 247.400 174.058 249.100 172.762 C 250.653 171.578,251.032 171.200,250.667 171.200 C 250.593 171.200,249.828 171.843,248.967 172.629 M217.600 185.618 C 217.162 185.915,217.324 185.952,218.200 185.756 C 219.671 185.427,219.990 185.198,218.967 185.206 C 218.545 185.209,217.930 185.395,217.600 185.618 M191.105 187.083 C 191.602 187.179,192.322 187.175,192.705 187.075 C 193.087 186.975,192.680 186.896,191.800 186.901 C 190.920 186.905,190.607 186.987,191.105 187.083 M197.058 187.598 C 198.630 187.734,201.330 187.734,203.058 187.597 C 205.495 187.405,204.854 187.349,200.200 187.350 C 195.854 187.351,194.988 187.420,197.058 187.598 M83.801 198.700 C 83.683 199.305,83.407 200.520,83.186 201.400 C 81.029 210.011,81.800 225.009,84.683 230.521 C 85.006 231.137,85.172 231.896,85.052 232.208 C 84.933 232.519,85.339 233.277,85.954 233.893 C 87.530 235.469,88.291 237.387,88.539 240.413 C 88.749 242.970,89.099 244.188,90.089 245.800 C 90.359 246.240,91.023 247.320,91.565 248.200 C 93.492 251.333,98.641 255.857,103.000 258.248 C 104.283 258.952,104.043 260.533,102.600 260.882 C 101.610 261.122,101.672 261.143,102.950 261.003 C 103.802 260.910,104.837 260.529,105.250 260.155 C 105.924 259.545,106.071 259.538,106.700 260.085 C 107.085 260.420,108.210 260.801,109.200 260.932 C 110.511 261.106,110.755 261.069,110.100 260.798 C 108.806 260.263,108.900 258.665,110.262 258.045 C 117.344 254.818,124.212 245.800,124.692 239.100 C 124.863 236.721,125.130 235.708,125.841 234.744 C 126.554 233.777,126.676 233.315,126.367 232.739 C 126.078 232.198,126.145 231.614,126.610 230.635 C 126.964 229.889,127.497 228.316,127.794 227.139 C 128.091 225.963,128.603 224.280,128.931 223.399 C 132.559 213.667,127.806 204.319,118.438 202.764 C 116.987 202.523,114.912 202.073,113.827 201.763 C 112.742 201.453,111.302 201.199,110.627 201.198 C 109.952 201.197,108.140 200.751,106.600 200.207 C 101.978 198.573,100.080 198.882,102.496 200.875 C 105.067 202.995,99.555 203.861,94.935 202.063 C 93.871 201.649,92.320 201.186,91.488 201.034 C 89.986 200.761,87.869 199.707,86.046 198.324 C 84.710 197.310,84.050 197.421,83.801 198.700 M100.000 198.400 C 100.000 198.620,100.270 198.800,100.600 198.800 C 100.930 198.800,101.200 198.620,101.200 198.400 C 101.200 198.180,100.930 198.000,100.600 198.000 C 100.270 198.000,100.000 198.180,100.000 198.400 M271.064 198.300 C 270.963 198.465,270.677 200.310,270.429 202.400 C 270.180 204.490,269.787 206.789,269.554 207.509 C 268.273 211.481,269.591 226.177,271.490 229.079 C 271.806 229.563,272.009 230.487,271.941 231.133 C 271.846 232.042,272.158 232.655,273.324 233.853 C 274.970 235.543,275.055 235.783,275.350 239.600 C 275.588 242.664,277.035 246.124,279.263 248.952 C 280.108 250.026,280.800 251.032,280.800 251.187 C 280.800 251.688,288.894 257.849,290.023 258.207 C 291.139 258.561,291.055 260.320,289.900 260.798 C 289.245 261.069,289.489 261.106,290.800 260.932 C 291.790 260.801,292.915 260.420,293.300 260.085 C 293.929 259.538,294.076 259.545,294.750 260.155 C 295.163 260.529,296.198 260.910,297.050 261.003 C 298.328 261.143,298.390 261.122,297.400 260.882 C 295.959 260.534,295.718 258.956,296.997 258.244 C 297.435 258.000,298.304 257.395,298.928 256.900 C 299.551 256.405,300.273 256.000,300.531 255.999 C 301.242 255.998,306.867 250.445,308.230 248.400 C 310.933 244.342,311.191 243.704,311.461 240.413 C 311.681 237.728,312.356 235.777,313.689 233.968 C 314.210 233.262,314.485 232.126,314.561 230.368 C 314.622 228.956,314.957 227.170,315.305 226.400 C 316.837 223.013,318.535 211.657,317.219 213.600 C 316.995 213.930,316.809 214.972,316.806 215.915 C 316.801 217.372,316.555 217.885,315.182 219.315 L 313.564 221.000 308.136 221.140 C 299.906 221.353,298.558 221.098,296.637 218.960 C 294.504 216.586,293.065 216.539,291.262 218.783 C 289.595 220.857,288.238 221.196,281.600 221.196 C 272.293 221.196,271.600 220.678,271.600 213.726 L 271.600 209.159 273.072 207.811 C 275.073 205.977,274.728 206.006,294.553 206.032 C 311.888 206.054,314.689 205.856,311.765 204.815 C 311.124 204.586,310.240 204.186,309.800 203.924 C 308.974 203.433,304.405 202.315,300.200 201.576 C 296.414 200.911,294.720 200.513,293.000 199.885 C 289.941 198.768,288.400 198.658,288.400 199.555 C 288.400 199.990,288.744 200.455,289.164 200.589 C 290.516 201.018,291.024 201.947,290.302 202.669 C 289.528 203.444,283.377 202.865,281.400 201.832 C 280.740 201.487,279.857 201.204,279.439 201.202 C 278.523 201.199,273.774 199.005,273.410 198.416 C 273.115 197.939,271.339 197.850,271.064 198.300 M275.296 209.511 C 273.678 210.863,273.346 215.504,274.745 217.231 C 275.855 218.603,286.993 218.467,287.984 217.069 C 289.319 215.186,289.260 211.159,287.876 209.700 L 286.643 208.400 281.622 208.411 C 276.749 208.421,276.561 208.454,275.296 209.511 M291.789 210.435 C 291.421 211.595,291.930 213.998,292.598 214.254 C 294.511 214.989,297.007 211.326,295.396 210.148 C 294.202 209.274,292.104 209.441,291.789 210.435 M299.376 210.168 C 298.722 210.646,298.600 211.229,298.600 213.868 C 298.600 218.712,298.105 218.400,305.797 218.400 L 312.420 218.400 312.871 217.300 C 313.478 215.819,313.289 211.616,312.565 210.500 C 311.833 209.370,300.846 209.094,299.376 210.168 M111.723 261.480 C 112.639 261.718,113.396 263.564,112.815 264.145 C 112.587 264.373,112.406 264.749,112.413 264.980 C 112.438 265.820,113.600 263.821,113.600 262.938 C 113.600 262.032,112.528 261.158,111.526 261.246 C 111.237 261.272,111.325 261.377,111.723 261.480 M286.880 261.680 C 286.227 262.333,286.276 263.683,286.987 264.624 C 287.310 265.051,287.580 265.211,287.587 264.980 C 287.594 264.749,287.405 264.365,287.166 264.126 C 286.418 263.378,286.912 261.857,288.000 261.556 C 288.837 261.325,288.866 261.273,288.180 261.240 C 287.729 261.218,287.144 261.416,286.880 261.680 M99.246 263.312 C 99.221 263.704,99.671 265.143,100.247 266.512 C 101.347 269.125,101.400 273.334,100.377 276.866 C 100.165 277.600,99.719 280.540,99.386 283.400 C 99.052 286.260,98.532 289.860,98.229 291.400 C 97.926 292.940,97.558 295.684,97.412 297.498 C 97.265 299.312,96.976 301.382,96.768 302.098 C 96.561 302.814,96.208 305.008,95.984 306.974 C 95.759 308.939,95.356 310.829,95.088 311.174 C 94.661 311.721,94.686 311.733,95.280 311.267 C 95.661 310.969,96.066 309.911,96.200 308.867 C 96.331 307.840,96.687 305.920,96.990 304.600 C 97.293 303.280,97.658 300.490,97.802 298.400 C 97.945 296.310,98.315 293.684,98.624 292.564 C 98.933 291.444,99.358 288.564,99.570 286.164 C 99.781 283.764,100.215 280.804,100.533 279.586 C 101.741 274.961,101.808 269.272,100.685 266.587 C 100.136 265.274,99.598 263.840,99.490 263.400 C 99.325 262.732,99.285 262.717,99.246 263.312 M300.446 263.406 C 300.421 263.849,300.023 264.915,299.563 265.773 C 298.534 267.694,298.469 272.167,299.418 275.800 C 299.763 277.120,300.220 280.180,300.432 282.600 C 300.645 285.020,301.003 287.630,301.226 288.400 C 301.450 289.170,301.897 292.140,302.220 295.000 C 302.921 301.212,303.916 306.010,303.961 303.400 C 303.976 302.520,303.736 300.720,303.428 299.400 C 303.119 298.080,302.671 295.015,302.431 292.590 C 302.192 290.164,301.832 287.611,301.633 286.915 C 301.434 286.220,301.061 283.614,300.806 281.125 C 300.551 278.636,300.085 275.464,299.771 274.075 C 298.960 270.489,299.045 267.773,300.031 265.736 C 300.488 264.791,300.779 263.700,300.678 263.309 C 300.520 262.704,300.486 262.719,300.446 263.406 M287.643 266.400 C 287.622 266.950,287.880 267.927,288.216 268.572 C 288.706 269.511,288.747 270.146,288.426 271.772 C 288.205 272.887,287.914 274.970,287.780 276.400 C 287.646 277.830,287.205 280.980,286.799 283.400 C 286.394 285.820,285.950 289.150,285.812 290.800 C 285.675 292.450,285.393 294.340,285.186 295.000 C 284.979 295.660,284.546 298.585,284.224 301.500 C 283.730 305.969,283.254 307.903,282.109 310.100 C 282.023 310.265,282.311 310.400,282.748 310.400 C 283.686 310.400,284.195 308.292,284.586 302.783 C 284.719 300.904,285.069 298.564,285.364 297.583 C 285.659 296.602,286.025 294.090,286.177 292.000 C 286.330 289.910,286.713 287.148,287.029 285.861 C 287.345 284.575,287.773 281.591,287.980 279.230 C 288.187 276.869,288.660 273.731,289.030 272.257 C 289.667 269.722,289.665 269.535,289.004 268.805 C 288.620 268.380,288.165 267.440,287.994 266.716 C 287.731 265.607,287.676 265.557,287.643 266.400 M111.474 268.518 C 111.310 269.134,111.271 269.792,111.389 269.982 C 111.506 270.171,111.777 272.472,111.991 275.093 C 112.205 277.715,112.642 280.927,112.961 282.230 C 113.279 283.534,113.654 286.220,113.793 288.200 C 113.933 290.180,114.292 292.700,114.592 293.800 C 114.892 294.900,115.328 297.962,115.563 300.605 C 115.944 304.904,117.355 310.778,117.881 310.252 C 117.987 310.146,117.682 308.471,117.202 306.530 C 116.723 304.588,116.086 300.806,115.787 298.123 C 115.488 295.441,115.064 292.561,114.845 291.723 C 114.626 290.886,114.333 288.850,114.195 287.200 C 114.056 285.550,113.667 282.670,113.329 280.800 C 112.991 278.930,112.503 275.150,112.244 272.400 C 111.905 268.804,111.689 267.714,111.474 268.518 M304.059 307.067 C 303.995 309.298,304.262 310.400,304.866 310.400 C 305.076 310.400,305.103 310.175,304.928 309.900 C 304.752 309.625,304.498 308.410,304.363 307.200 L 304.118 305.000 304.059 307.067 M290.000 326.000 C 288.828 326.182,290.084 326.281,293.600 326.284 C 297.715 326.286,298.477 326.215,296.800 325.983 C 294.170 325.620,292.418 325.624,290.000 326.000 M104.117 326.297 C 105.611 326.374,107.951 326.374,109.317 326.296 C 110.682 326.218,109.460 326.155,106.600 326.155 C 103.740 326.156,102.622 326.220,104.117 326.297 " stroke="none" fill="#f8c95a" fill-rule="evenodd"></path><path id="path4" d="M195.800 29.802 C 190.141 30.704,185.881 33.606,184.367 37.590 C 183.531 39.791,183.370 41.811,184.000 42.200 C 184.828 42.712,184.430 44.742,183.357 45.481 C 181.241 46.939,176.000 52.658,176.000 53.509 C 176.000 53.720,175.669 54.321,175.264 54.846 C 174.860 55.371,174.333 56.520,174.093 57.400 C 173.854 58.280,173.336 59.810,172.943 60.800 C 171.984 63.217,171.838 82.240,172.770 83.363 C 173.634 84.405,175.290 84.015,176.012 82.600 C 178.094 78.516,180.239 76.468,186.600 72.490 C 187.040 72.215,188.145 71.647,189.056 71.228 C 189.967 70.809,190.832 70.271,190.980 70.033 C 191.127 69.795,191.518 69.600,191.849 69.600 C 192.180 69.600,193.564 69.080,194.925 68.445 C 196.286 67.810,197.670 67.176,198.000 67.037 C 198.330 66.898,199.320 66.346,200.200 65.811 C 201.080 65.276,202.250 64.608,202.800 64.327 C 203.350 64.045,204.844 62.956,206.121 61.907 C 208.822 59.687,209.068 59.631,209.661 61.100 C 212.109 67.159,214.355 69.939,218.630 72.199 C 222.287 74.131,223.835 76.266,224.234 79.926 C 224.531 82.656,225.212 83.712,226.550 83.521 C 228.187 83.288,228.554 64.997,227.006 60.800 C 226.641 59.810,226.146 58.280,225.907 57.400 C 225.667 56.520,225.140 55.371,224.736 54.846 C 224.331 54.321,224.000 53.720,224.000 53.509 C 224.000 52.658,218.759 46.939,216.643 45.481 C 215.570 44.742,215.172 42.712,216.000 42.200 C 216.630 41.811,216.469 39.791,215.633 37.590 C 214.070 33.475,209.872 30.700,203.800 29.767 C 199.669 29.133,200.006 29.131,195.800 29.802 M102.684 168.624 C 100.090 168.902,97.750 169.299,97.484 169.506 C 96.551 170.235,95.190 170.319,93.339 169.762 C 86.041 167.565,77.878 171.564,74.164 179.155 C 69.413 188.867,69.265 206.743,73.854 216.640 C 74.374 217.762,74.800 218.800,74.800 218.946 C 74.800 219.220,76.932 222.967,78.000 224.571 C 78.330 225.067,79.083 226.198,79.673 227.085 C 80.713 228.649,84.189 232.400,84.598 232.400 C 85.080 232.400,84.744 231.264,84.200 231.055 C 83.835 230.915,83.600 230.310,83.600 229.513 C 83.600 228.791,83.215 227.210,82.745 226.000 C 80.592 220.453,81.788 198.270,84.293 197.309 C 84.604 197.190,85.340 197.445,85.929 197.876 C 87.552 199.064,91.204 200.691,93.000 201.026 C 93.880 201.191,95.230 201.589,96.000 201.910 C 97.487 202.531,102.129 202.804,102.633 202.300 C 102.798 202.135,102.183 201.308,101.267 200.461 C 98.597 197.997,99.219 196.751,102.296 198.400 C 103.116 198.840,104.207 199.200,104.720 199.200 C 105.232 199.200,106.495 199.545,107.526 199.967 C 108.557 200.389,110.463 200.844,111.762 200.978 C 113.062 201.112,115.481 201.577,117.138 202.011 C 118.795 202.445,120.493 202.800,120.912 202.800 C 121.331 202.800,122.131 203.160,122.691 203.600 C 123.250 204.040,123.909 204.408,124.154 204.417 C 124.870 204.444,127.795 207.271,128.732 208.841 C 130.620 212.003,130.782 221.353,129.009 224.782 C 128.470 225.825,127.392 229.657,126.923 232.200 L 126.702 233.400 127.946 232.230 C 129.197 231.053,132.817 225.059,133.399 223.200 C 133.571 222.650,134.047 221.573,134.456 220.806 C 134.865 220.039,135.200 218.993,135.200 218.480 C 135.200 217.968,135.548 216.705,135.974 215.674 C 136.974 213.252,138.158 204.103,137.873 201.000 C 137.348 195.290,136.669 191.285,135.961 189.722 C 135.542 188.799,135.200 187.888,135.200 187.698 C 135.200 187.399,133.464 183.874,131.634 180.457 C 130.867 179.025,124.143 172.400,123.457 172.400 C 123.155 172.400,122.479 172.079,121.954 171.686 C 119.988 170.214,115.807 168.872,112.375 168.612 C 110.519 168.471,108.640 168.303,108.200 168.238 C 107.760 168.173,105.278 168.347,102.684 168.624 M290.800 168.583 C 287.757 168.869,285.307 169.312,284.541 169.715 C 283.402 170.315,283.069 170.322,281.022 169.789 C 271.096 167.203,261.860 173.698,259.394 185.000 C 259.105 186.320,258.672 188.030,258.430 188.800 C 256.886 193.712,258.108 209.537,260.432 214.711 C 260.854 215.652,261.200 216.752,261.200 217.157 C 261.200 217.561,261.535 218.321,261.945 218.846 C 262.355 219.371,262.822 220.222,262.984 220.738 C 263.145 221.253,263.799 222.423,264.437 223.338 C 267.666 227.971,268.314 228.834,269.699 230.355 C 270.523 231.260,271.288 232.000,271.399 232.000 C 271.835 232.000,271.542 229.757,271.016 229.063 C 270.709 228.658,270.339 227.578,270.193 226.663 C 270.048 225.748,269.643 224.010,269.293 222.800 C 268.443 219.858,268.457 209.172,269.316 205.771 C 269.645 204.467,270.044 202.230,270.202 200.800 C 270.601 197.183,271.768 196.166,273.484 197.940 C 274.312 198.795,278.448 200.800,279.385 200.800 C 279.734 200.800,281.025 201.153,282.254 201.585 C 286.765 203.171,291.352 203.029,289.956 201.347 C 289.706 201.046,289.260 200.800,288.965 200.800 C 288.670 200.800,288.216 200.395,287.956 199.900 C 287.696 199.405,287.236 198.854,286.933 198.675 C 285.069 197.575,287.689 197.324,289.800 198.400 C 290.663 198.840,291.791 199.200,292.307 199.200 C 292.822 199.200,293.999 199.540,294.922 199.956 C 295.845 200.372,297.950 200.843,299.600 201.003 C 301.250 201.163,303.230 201.529,304.000 201.815 C 304.770 202.102,306.120 202.457,307.000 202.604 C 310.539 203.198,315.784 206.745,314.392 207.605 C 314.019 207.836,313.518 207.778,313.004 207.445 C 311.728 206.619,276.975 206.196,275.600 206.991 C 275.050 207.308,274.150 207.797,273.600 208.076 C 272.075 208.850,272.012 209.081,272.019 213.800 C 272.030 220.444,272.517 220.800,281.600 220.800 C 288.404 220.800,288.808 220.698,291.113 218.393 C 293.514 215.992,295.593 216.320,297.403 219.389 C 298.564 221.357,313.575 221.351,314.602 219.383 C 314.826 218.952,315.301 218.150,315.657 217.600 C 316.013 217.050,316.408 215.651,316.535 214.490 C 317.021 210.030,317.927 211.108,317.972 216.200 C 317.991 218.329,317.742 220.203,317.230 221.800 C 315.098 228.446,314.729 229.910,314.859 231.195 C 314.979 232.381,315.077 232.501,315.517 231.995 C 317.297 229.948,320.923 223.125,322.105 219.600 C 322.436 218.610,322.899 217.260,323.131 216.600 C 325.349 210.318,325.943 199.467,324.391 193.627 C 323.956 191.992,323.600 190.389,323.600 190.065 C 323.600 189.307,319.850 181.834,318.550 180.000 C 313.912 173.459,307.042 169.200,300.176 168.610 C 298.429 168.459,296.730 168.286,296.400 168.225 C 296.070 168.163,293.550 168.324,290.800 168.583 M287.800 208.800 C 287.940 209.241,288.402 209.787,288.827 210.014 C 290.127 210.710,289.937 215.439,288.542 217.123 L 287.484 218.400 281.191 218.400 C 273.565 218.400,273.800 218.553,273.800 213.599 C 273.800 208.226,274.096 208.016,281.673 208.007 C 287.199 208.000,287.561 208.047,287.800 208.800 M294.769 209.054 C 295.734 209.247,296.237 209.696,296.865 210.927 L 297.691 212.546 298.184 211.373 C 299.600 208.006,311.717 207.546,313.397 210.795 C 314.207 212.361,314.122 215.892,313.238 217.400 L 312.535 218.600 305.771 218.600 L 299.008 218.600 298.318 217.200 C 297.904 216.359,297.713 215.321,297.839 214.600 C 297.954 213.940,297.903 213.601,297.724 213.847 C 297.332 214.388,292.162 214.990,291.886 214.527 C 291.779 214.347,291.568 213.281,291.416 212.158 C 291.020 209.221,291.834 208.467,294.769 209.054 M81.400 245.421 C 80.740 245.731,79.930 246.152,79.600 246.357 C 79.077 246.682,77.789 247.281,73.600 249.148 C 73.050 249.394,72.330 249.760,72.000 249.962 C 71.670 250.164,70.320 250.816,69.000 251.410 C 66.707 252.441,66.080 252.742,64.500 253.564 C 64.115 253.765,62.720 254.415,61.400 255.009 C 60.080 255.604,58.640 256.280,58.200 256.512 C 57.760 256.745,56.320 257.466,55.000 258.116 C 46.712 262.194,47.278 261.698,45.792 266.200 C 45.429 267.300,44.871 269.190,44.552 270.400 C 44.232 271.610,43.724 273.050,43.422 273.600 C 43.120 274.150,42.747 275.320,42.592 276.200 C 42.437 277.080,42.065 278.192,41.764 278.672 C 41.464 279.151,41.099 280.321,40.953 281.272 C 40.807 282.222,40.353 283.668,39.944 284.484 C 39.535 285.300,39.200 286.239,39.200 286.570 C 39.200 286.901,38.924 287.985,38.586 288.979 C 38.022 290.641,38.028 290.876,38.664 291.893 C 41.200 295.953,49.737 304.713,54.851 308.504 C 55.373 308.890,56.366 309.655,57.058 310.204 C 57.750 310.752,58.455 311.200,58.626 311.200 C 58.797 311.200,59.231 311.466,59.591 311.792 C 60.632 312.734,66.887 316.406,67.871 316.654 C 68.364 316.777,68.977 317.131,69.233 317.439 C 69.489 317.748,69.919 318.000,70.189 318.000 C 70.460 318.000,71.527 318.450,72.562 319.000 C 73.596 319.550,74.712 320.000,75.042 320.000 C 75.372 320.000,76.307 320.351,77.121 320.780 C 79.186 321.869,88.726 324.538,93.000 325.222 C 99.221 326.217,100.465 325.632,98.836 322.479 C 97.806 320.487,96.000 315.725,96.000 315.003 C 96.000 314.683,95.652 313.652,95.228 312.711 C 94.205 310.446,93.279 307.568,92.576 304.476 C 92.260 303.087,91.789 301.557,91.528 301.076 C 91.268 300.594,90.832 299.030,90.560 297.600 C 89.526 292.159,88.340 287.036,87.944 286.295 C 87.717 285.871,87.362 283.722,87.154 281.521 C 86.947 279.319,86.508 276.996,86.179 276.360 C 85.850 275.723,85.408 273.897,85.196 272.301 C 84.985 270.706,84.523 268.590,84.169 267.600 C 83.663 266.182,83.493 263.639,83.365 255.621 C 83.190 244.624,83.182 244.584,81.400 245.421 M130.169 245.651 C 130.016 245.898,129.858 249.363,129.818 253.351 C 129.761 259.199,129.578 261.329,128.873 264.372 C 128.393 266.446,127.992 268.876,127.982 269.772 C 127.973 270.667,127.699 272.120,127.374 273.000 C 126.707 274.808,125.355 280.898,124.754 284.800 C 124.534 286.230,124.170 288.120,123.946 289.000 C 123.721 289.880,123.205 292.220,122.799 294.200 C 122.393 296.180,121.785 298.520,121.448 299.400 C 121.111 300.280,120.827 301.502,120.818 302.116 C 120.808 302.730,120.464 303.900,120.053 304.716 C 119.641 305.532,119.176 307.083,119.019 308.162 C 118.861 309.241,118.404 310.591,118.002 311.162 C 117.600 311.733,117.157 313.040,117.016 314.067 C 116.876 315.094,116.522 316.133,116.230 316.375 C 115.939 316.617,115.579 317.568,115.432 318.488 C 115.285 319.408,114.979 320.384,114.753 320.657 C 114.526 320.930,114.009 322.249,113.603 323.589 L 112.866 326.024 114.133 325.828 C 114.830 325.720,116.809 325.518,118.531 325.379 C 120.253 325.240,122.862 324.783,124.329 324.363 C 125.797 323.943,127.451 323.600,128.005 323.600 C 128.559 323.600,129.639 323.266,130.406 322.859 C 131.173 322.451,132.499 321.988,133.354 321.830 C 134.209 321.673,135.556 321.196,136.348 320.772 C 137.140 320.347,137.999 320.000,138.257 320.000 C 138.696 320.000,142.263 318.367,143.600 317.555 C 143.930 317.354,144.920 316.830,145.800 316.389 C 146.680 315.949,148.120 315.153,149.000 314.622 C 149.880 314.090,151.140 313.348,151.800 312.972 C 158.775 309.003,173.551 294.744,174.236 291.321 C 174.362 290.691,174.168 289.396,173.798 288.395 C 173.433 287.408,172.890 285.700,172.591 284.600 C 172.053 282.617,171.350 280.456,169.991 276.600 C 169.604 275.500,168.795 272.980,168.195 271.000 C 167.595 269.020,166.646 266.182,166.086 264.693 L 165.067 261.986 160.834 259.952 C 158.505 258.832,154.710 257.013,152.400 255.909 C 150.090 254.804,145.770 252.734,142.800 251.308 C 139.830 249.883,136.497 248.285,135.394 247.758 C 134.291 247.231,133.194 246.800,132.956 246.800 C 132.719 246.800,132.198 246.440,131.800 246.000 C 130.977 245.091,130.569 245.003,130.169 245.651 M265.600 246.985 C 263.730 247.946,259.500 250.021,256.200 251.596 C 252.900 253.171,249.930 254.628,249.600 254.833 C 249.270 255.038,248.550 255.410,248.000 255.659 C 247.161 256.040,237.482 260.668,235.613 261.583 C 234.941 261.913,233.377 265.775,231.800 271.000 C 231.203 272.980,230.396 275.500,230.009 276.600 C 228.650 280.456,227.947 282.617,227.409 284.600 C 227.110 285.700,226.567 287.408,226.202 288.395 C 225.028 291.570,225.713 292.774,232.996 300.348 C 240.267 307.910,248.346 313.754,257.200 317.860 C 257.970 318.217,259.255 318.845,260.054 319.255 C 260.854 319.665,261.761 320.000,262.070 320.000 C 262.378 320.000,263.334 320.358,264.193 320.796 C 265.052 321.234,266.395 321.709,267.178 321.850 C 267.960 321.991,269.110 322.365,269.734 322.681 C 270.357 322.997,271.977 323.433,273.334 323.649 C 274.690 323.866,276.546 324.295,277.458 324.603 C 278.370 324.910,280.710 325.216,282.658 325.281 L 286.200 325.400 286.328 324.284 C 286.399 323.671,286.087 322.406,285.636 321.475 C 285.185 320.543,284.698 319.155,284.553 318.390 C 284.409 317.626,284.046 316.717,283.748 316.372 C 283.450 316.027,283.024 314.779,282.800 313.600 C 282.576 312.421,282.141 311.173,281.832 310.828 C 281.524 310.483,281.141 309.300,280.983 308.200 C 280.825 307.100,280.359 305.532,279.947 304.716 C 279.536 303.900,279.192 302.730,279.182 302.116 C 279.173 301.502,278.889 300.280,278.552 299.400 C 278.215 298.520,277.607 296.180,277.201 294.200 C 276.795 292.220,276.279 289.880,276.054 289.000 C 275.830 288.120,275.466 286.230,275.246 284.800 C 274.611 280.674,273.246 274.434,272.794 273.588 C 272.566 273.162,272.199 271.326,271.978 269.507 C 271.757 267.688,271.286 265.480,270.931 264.600 C 270.422 263.340,270.261 261.197,270.173 254.510 C 270.066 246.495,269.939 245.174,269.276 245.219 C 269.124 245.229,267.470 246.024,265.600 246.985 M316.786 245.500 C 316.778 245.665,316.709 250.211,316.632 255.602 C 316.522 263.341,316.361 265.718,315.868 266.899 C 315.525 267.721,315.054 269.753,314.823 271.413 C 314.592 273.074,314.148 274.926,313.837 275.529 C 313.525 276.131,313.142 278.149,312.986 280.012 C 312.829 281.875,312.468 283.973,312.182 284.674 C 311.896 285.374,311.450 287.354,311.191 289.074 C 310.931 290.793,310.483 292.920,310.195 293.800 C 309.907 294.680,309.542 296.208,309.385 297.195 C 309.227 298.182,308.831 299.712,308.505 300.595 C 308.179 301.478,307.676 303.280,307.387 304.600 C 307.098 305.920,306.298 308.530,305.609 310.400 C 304.920 312.270,304.207 314.376,304.025 315.079 C 303.638 316.572,302.225 320.292,301.151 322.644 C 300.340 324.419,300.205 325.432,300.735 325.760 C 301.288 326.101,308.879 325.207,310.600 324.598 C 311.480 324.286,313.326 323.854,314.703 323.637 C 316.080 323.421,317.410 323.118,317.659 322.964 C 318.062 322.714,320.056 321.952,324.400 320.387 C 326.132 319.763,329.991 318.058,330.800 317.560 C 331.130 317.356,332.120 316.834,333.000 316.400 C 334.847 315.488,335.073 315.350,339.543 312.404 C 344.403 309.200,344.315 309.263,347.800 306.441 C 352.942 302.276,359.873 294.954,361.319 292.156 C 361.963 290.912,361.824 290.008,360.346 285.800 C 360.114 285.140,359.780 284.150,359.604 283.600 C 359.428 283.050,358.983 281.700,358.616 280.600 C 358.248 279.500,357.689 277.675,357.373 276.544 C 357.056 275.413,356.529 273.973,356.201 273.344 C 355.873 272.715,355.600 271.750,355.594 271.200 C 355.587 270.650,355.255 269.478,354.854 268.596 C 354.453 267.714,353.992 266.274,353.829 265.396 C 353.474 263.484,351.843 261.200,350.834 261.200 C 350.434 261.200,349.664 260.851,349.122 260.425 C 348.580 259.998,347.663 259.531,347.085 259.386 C 346.506 259.240,345.823 258.869,345.567 258.561 C 345.311 258.252,344.902 258.000,344.657 258.000 C 344.412 258.000,343.219 257.527,342.006 256.948 C 337.378 254.741,332.561 252.473,331.600 252.048 C 331.050 251.805,330.330 251.424,330.000 251.203 C 329.670 250.981,328.950 250.620,328.400 250.401 C 327.850 250.181,327.130 249.834,326.800 249.628 C 325.856 249.040,320.970 246.800,320.631 246.800 C 320.464 246.800,319.869 246.440,319.309 246.000 C 318.306 245.211,316.813 244.915,316.786 245.500 " stroke="none" fill="#324a5a" fill-rule="evenodd"></path></g></svg>