<?xml version="1.0" standalone="no"?>
<!DOCTYPE svg PUBLIC "-//W3C//DTD SVG 20010904//EN"
 "http://www.w3.org/TR/2001/REC-SVG-20010904/DTD/svg10.dtd">
<svg version="1.0" xmlns="http://www.w3.org/2000/svg"
 width="800.000000pt" height="800.000000pt" viewBox="0 0 800.000000 800.000000"
 preserveAspectRatio="xMidYMid meet">
<metadata>
Created by potrace 1.16, written by Peter Selinger 2001-2019
</metadata>
<g transform="translate(0.000000,800.000000) scale(0.100000,-0.100000)"
fill="#000000" stroke="none">
<path d="M3745 6460 c-134 -24 -243 -53 -365 -97 -117 -41 -358 -158 -475
-228 -91 -55 -312 -209 -365 -253 l-35 -30 229 -459 228 -458 -37 -55 c-83
-123 -159 -305 -189 -455 -9 -44 -27 -201 -41 -350 -14 -148 -39 -418 -56
-600 l-31 -330 31 -25 c120 -97 467 -281 781 -413 l175 -74 3 301 3 301 -33
25 c-154 118 -251 229 -340 389 -85 154 -149 371 -164 558 l-6 78 123 64 c166
87 402 228 524 314 55 38 141 112 192 164 50 51 98 93 105 93 7 0 44 -33 81
-74 118 -131 367 -300 700 -477 l159 -84 -6 -78 c-22 -269 -126 -539 -287
-745 -42 -53 -129 -134 -217 -202 l-33 -25 3 -301 3 -301 175 74 c242 101 512
237 655 328 66 42 128 84 138 94 18 17 16 38 -37 617 -31 329 -63 635 -72 679
-30 150 -106 332 -189 455 l-37 55 228 458 229 459 -35 30 c-53 44 -274 198
-365 253 -204 123 -475 239 -677 290 -226 58 -476 71 -673 35z m472 -26 c223
-33 443 -107 685 -231 205 -105 548 -333 548 -364 0 -8 -406 -827 -415 -837
-1 -1 -46 42 -101 96 -194 193 -416 311 -694 369 -117 24 -363 24 -480 0 -292
-61 -530 -192 -723 -396 -38 -40 -70 -71 -72 -69 -8 8 -415 828 -415 836 0 32
345 262 546 364 407 208 773 284 1121 232z"/>
<path d="M3912 6216 c-109 -36 -186 -134 -198 -254 -5 -45 -1 -70 16 -116 96
-255 444 -255 540 0 50 135 -14 291 -147 355 -56 27 -153 34 -211 15z m131
-99 c3 -8 4 -39 4 -70 l-2 -57 73 0 72 0 0 -45 0 -44 -72 -3 -71 -3 2 -72 2
-73 -51 0 -50 0 2 73 3 72 -73 0 -72 0 0 48 0 47 73 0 72 0 -1 51 c-2 80 3 89
46 89 23 0 40 -5 43 -13z"/>
</g>
</svg>
