<?xml version="1.0" standalone="no"?>
<!DOCTYPE svg PUBLIC "-//W3C//DTD SVG 20010904//EN"
 "http://www.w3.org/TR/2001/REC-SVG-20010904/DTD/svg10.dtd">
<svg version="1.0" xmlns="http://www.w3.org/2000/svg"
 width="626.000000pt" height="503.000000pt" viewBox="0 0 626.000000 503.000000"
 preserveAspectRatio="xMidYMid meet">
<metadata>
Created by potrace 1.16, written by Peter Selinger 2001-2019
</metadata>
<g transform="translate(0.000000,503.000000) scale(0.100000,-0.100000)"
fill="#000000" stroke="none">
<path d="M2935 4396 c-114 -22 -184 -45 -290 -96 -518 -248 -763 -849 -566
-1390 17 -45 46 -111 66 -146 l35 -64 -479 0 c-282 0 -500 -4 -532 -10 -193
-37 -344 -187 -406 -405 -25 -89 -32 -988 -8 -1127 38 -227 182 -402 372 -454
65 -18 144 -19 2003 -19 1859 0 1938 1 2003 19 131 36 251 139 312 269 70 148
70 144 70 722 0 580 0 577 -71 723 -68 138 -205 244 -353 272 -32 6 -250 10
-532 10 l-479 0 35 64 c165 300 177 685 31 1000 -136 295 -415 528 -731 612
-83 22 -127 27 -255 30 -103 2 -178 -1 -225 -10z m445 -125 c596 -156 915
-799 678 -1369 -64 -155 -204 -328 -344 -428 -83 -59 -230 -127 -334 -155 -72
-20 -110 -23 -250 -23 -140 0 -178 3 -250 23 -365 98 -640 379 -732 748 -33
133 -31 341 5 477 97 364 376 639 742 730 93 23 110 24 260 22 106 -2 161 -9
225 -25z m-1045 -1763 c212 -217 485 -331 795 -331 195 0 330 32 505 118 107
53 184 109 282 205 l71 70 486 0 c315 0 504 -4 538 -11 178 -37 315 -169 365
-350 16 -57 18 -111 16 -517 -2 -367 -5 -464 -17 -512 -42 -164 -148 -280
-314 -343 l-57 -22 -1832 -3 c-1992 -3 -1903 -5 -2025 53 -107 50 -186 141
-238 275 l-25 65 0 485 c0 479 0 486 23 551 42 121 117 212 222 268 110 59
119 60 655 60 l490 1 60 -62z"/>
<path d="M4727 1341 c-104 -102 -186 -190 -183 -194 3 -4 3 -5 0 -3 -3 2 -20
-2 -37 -9 -34 -14 -78 -6 -108 21 -18 16 -19 16 -19 -4 0 -11 14 -32 32 -47
26 -22 39 -26 67 -21 30 4 65 35 222 193 171 174 228 238 218 247 -2 3 -89
-80 -192 -183z"/>
</g>
</svg>
