<?xml version="1.0" standalone="no"?>
<!DOCTYPE svg PUBLIC "-//W3C//DTD SVG 20010904//EN"
 "http://www.w3.org/TR/2001/REC-SVG-20010904/DTD/svg10.dtd">
<svg version="1.0" xmlns="http://www.w3.org/2000/svg"
 width="800.000000pt" height="800.000000pt" viewBox="0 0 800.000000 800.000000"
 preserveAspectRatio="xMidYMid meet">

<g transform="translate(0.000000,800.000000) scale(0.100000,-0.100000)"
fill="#000000" stroke="none">
<path d="M4174 6360 c-51 -11 -130 -50 -171 -84 l-31 -26 -56 26 c-204 93
-420 24 -516 -167 -60 -118 -71 -182 -80 -449 -9 -249 -12 -270 -49 -350 -73
-159 34 -274 303 -325 57 -11 98 -26 146 -55 36 -22 69 -40 73 -40 16 0 4 25
-32 66 -51 58 -99 159 -125 266 -16 68 -25 88 -38 88 -39 0 -75 106 -56 162 7
20 19 31 39 35 30 6 33 11 44 78 26 154 174 293 281 264 44 -13 110 -72 171
-154 25 -33 56 -68 69 -78 13 -10 22 -22 19 -26 -2 -4 1 -8 8 -9 7 0 32 -8 55
-17 34 -12 52 -13 80 -5 50 14 50 14 54 -17 2 -20 9 -29 26 -31 12 -2 30 -14
39 -28 30 -46 -1 -159 -47 -171 -13 -4 -22 -24 -33 -71 -23 -100 -52 -170
-102 -246 -25 -38 -45 -70 -45 -72 0 -1 4 -14 9 -27 l10 -25 138 29 c76 16
163 29 193 29 85 1 188 18 239 41 98 43 140 111 141 225 0 82 -20 147 -75 247
-37 68 -38 69 -46 225 -24 448 -194 677 -517 696 -42 3 -96 1 -118 -4z"/>
<path d="M4177 4061 c-93 -163 -129 -279 -108 -344 17 -49 73 -99 108 -95 20
2 29 9 31 25 4 25 -29 48 -58 40 -37 -9 -53 26 -47 100 6 77 33 145 109 270
44 74 52 103 29 103 -4 0 -33 -45 -64 -99z"/>
<path d="M4577 4033 c-4 -3 -7 -29 -7 -57 0 -172 -64 -367 -122 -374 -15 -2
-38 4 -52 13 -43 29 -94 -6 -59 -40 12 -13 28 -15 72 -10 49 6 61 11 93 47 43
46 71 123 87 243 19 132 14 204 -12 178z"/>
<path d="M3384 3906 c-40 -18 -72 -62 -79 -112 -5 -31 -2 -46 17 -74 48 -72
134 -87 197 -34 80 67 52 195 -50 224 -42 12 -47 12 -85 -4z m53 -30 c-3 -7 0
-19 6 -26 10 -10 7 -10 -11 -1 -29 16 -69 -7 -78 -44 -3 -14 -13 -25 -21 -25
-24 0 -7 51 28 83 31 29 85 38 76 13z"/>
<path d="M2870 1838 c0 -7 12 -64 27 -126 24 -98 30 -113 50 -118 41 -11 50 2
69 87 19 89 24 88 46 -16 6 -27 15 -56 20 -62 13 -16 54 -17 63 -2 7 11 65
226 65 241 0 5 -10 8 -22 6 -20 -3 -26 -15 -43 -83 -12 -44 -23 -86 -26 -94
-3 -8 -16 28 -30 80 -20 80 -27 94 -46 97 -27 4 -36 -12 -58 -113 -19 -87 -20
-87 -50 30 -17 68 -23 80 -42 83 -14 2 -23 -2 -23 -10z"/>
<path d="M3255 1837 c-3 -7 -4 -65 -3 -128 l3 -114 70 0 c58 0 70 3 73 18 3
14 -4 17 -47 17 l-51 0 0 41 c0 36 3 40 23 39 42 -4 57 0 57 14 0 10 -13 16
-37 18 -35 3 -38 6 -41 35 -3 31 -3 32 45 35 35 2 48 7 48 18 0 21 -133 28
-140 7z"/>
<path d="M3444 1837 c-2 -7 -3 -65 -2 -128 l3 -114 65 0 c60 0 65 2 68 23 3
20 -1 22 -42 22 l-46 0 0 105 c0 99 -1 105 -20 105 -11 0 -23 -6 -26 -13z"/>
<path d="M3641 1824 c-55 -46 -62 -157 -13 -206 40 -41 152 -31 152 13 0 15
-4 19 -16 15 -49 -19 -63 -17 -88 8 -20 19 -26 35 -26 66 0 31 6 47 26 66 25
25 39 27 88 8 11 -4 16 0 16 15 0 46 -90 56 -139 15z"/>
<path d="M3858 1835 c-56 -31 -73 -146 -30 -205 42 -56 149 -51 189 9 26 38
31 112 11 156 -23 51 -111 71 -170 40z m98 -33 c40 -27 46 -111 9 -147 -51
-52 -105 -18 -105 65 0 37 5 55 20 70 20 20 56 26 76 12z"/>
<path d="M4093 1834 c-5 -15 -7 -63 -4 -191 1 -46 4 -53 21 -53 19 0 20 7 20
102 0 56 3 98 7 94 4 -3 21 -48 38 -99 28 -82 35 -92 56 -92 21 0 28 12 61
100 l37 100 3 -100 c3 -92 5 -100 23 -100 19 0 20 7 20 125 l0 125 -29 3 c-38
5 -46 -5 -82 -100 l-31 -81 -28 79 c-16 43 -33 85 -38 92 -14 18 -66 15 -74
-4z"/>
<path d="M4434 1837 c-2 -7 -3 -65 -2 -128 l3 -114 73 -3 c67 -3 72 -1 72 18
0 17 -6 20 -45 20 l-45 0 0 40 0 40 41 0 c33 0 40 3 37 18 -3 13 -12 16 -41
15 -36 -2 -37 -2 -37 32 0 35 0 35 45 35 38 0 45 3 45 20 0 18 -7 20 -70 20
-49 0 -72 -4 -76 -13z"/>
<path d="M4700 1825 c0 -22 4 -25 35 -25 l35 0 0 -106 c0 -104 0 -105 23 -102
21 3 22 8 25 105 l3 102 32 3 c24 2 32 8 32 23 0 18 -8 20 -92 23 l-93 3 0
-26z"/>
<path d="M4934 1816 c-32 -32 -34 -38 -34 -99 0 -85 23 -116 93 -124 92 -11
140 36 139 134 -1 87 -36 123 -124 123 -32 0 -47 -7 -74 -34z m126 -26 c28
-28 27 -98 -1 -134 -42 -53 -109 -20 -109 55 0 86 60 129 110 79z"/>
<path d="M2143 1350 c-64 -38 -71 -165 -12 -215 54 -44 143 -31 179 27 23 38
27 112 8 153 -24 54 -115 72 -175 35z m111 -39 c23 -25 30 -89 14 -121 -19
-36 -60 -48 -92 -26 -23 14 -26 23 -26 71 0 42 5 60 20 75 25 25 62 26 84 1z"/>
<path d="M2374 1356 c-3 -9 -4 -57 -3 -107 4 -85 6 -92 32 -115 42 -36 109
-34 148 6 29 29 30 30 27 127 -3 90 -5 98 -23 98 -18 0 -20 -8 -23 -91 -2 -77
-6 -95 -23 -110 -15 -14 -25 -16 -47 -8 -26 9 -27 11 -32 109 -5 94 -6 100
-28 103 -13 2 -24 -3 -28 -12z"/>
<path d="M2640 1349 c-4 -252 -6 -234 21 -234 22 0 24 4 27 53 3 44 6 53 20
50 9 -2 28 -27 41 -55 20 -42 30 -53 48 -53 29 0 29 15 -1 74 -24 47 -24 48
-5 67 24 24 24 60 0 90 -15 19 -30 24 -85 27 -64 4 -66 4 -66 -19z m104 -35
c9 -8 16 -19 16 -23 0 -15 -25 -31 -47 -31 -20 0 -23 5 -23 35 0 28 4 35 19
35 11 0 27 -7 35 -16z"/>
<path d="M3044 1357 c-2 -7 -3 -65 -2 -128 3 -106 4 -114 23 -114 18 0 20 8
23 100 l4 100 37 -100 c32 -88 39 -100 60 -100 20 0 27 12 57 94 18 51 35 96
39 99 3 3 5 -41 5 -97 0 -100 0 -102 23 -99 21 3 22 6 22 122 0 130 -7 145
-57 133 -21 -6 -30 -20 -54 -87 -15 -44 -30 -80 -34 -80 -4 0 -19 36 -34 79
-15 44 -34 82 -43 85 -26 10 -63 6 -69 -7z"/>
<path d="M3395 1357 c-3 -7 -4 -65 -3 -128 l3 -114 70 0 c58 0 70 3 73 18 3
14 -4 17 -48 17 l-51 0 3 38 c3 36 4 37 46 40 54 4 52 25 -4 32 -35 5 -39 8
-42 38 l-3 32 51 0 c44 0 51 3 48 18 -3 14 -16 18 -71 20 -50 2 -69 -1 -72
-11z"/>
<path d="M3592 1244 l3 -129 63 1 c77 1 111 23 130 82 12 35 12 49 0 84 -18
57 -51 79 -132 85 l-67 6 3 -129z m131 55 c9 -12 17 -38 17 -59 0 -46 -24 -76
-67 -85 l-33 -7 0 92 0 93 33 -7 c17 -3 40 -16 50 -27z"/>
<path d="M3840 1240 c0 -131 0 -131 23 -128 21 3 22 6 22 128 0 122 -1 125
-22 128 -23 3 -23 3 -23 -128z"/>
<path d="M3989 1355 c-28 -15 -59 -78 -59 -121 0 -37 25 -89 51 -108 45 -31
139 -14 139 24 0 18 -4 20 -22 13 -37 -12 -80 -7 -95 13 -17 24 -16 104 2 128
15 20 53 24 93 11 18 -6 22 -4 22 13 0 40 -78 56 -131 27z"/>
<path d="M4215 1358 c-67 -188 -83 -237 -78 -242 17 -16 45 -4 54 24 10 28 15
30 58 30 43 0 48 -3 58 -30 10 -28 39 -40 56 -24 3 3 -14 61 -38 127 -41 119
-43 122 -74 125 -19 2 -33 -2 -36 -10z m48 -85 c3 -16 9 -36 12 -45 6 -15 1
-18 -28 -18 l-35 0 16 50 c17 53 26 56 35 13z"/>
<path d="M4402 1243 l3 -128 65 0 c58 0 65 2 65 20 0 16 -8 21 -42 23 l-42 3
-3 102 c-3 98 -4 102 -26 105 l-23 3 3 -128z"/>
<path d="M4684 1336 c-31 -31 -34 -40 -34 -90 0 -67 15 -103 51 -122 55 -28
129 -12 129 27 0 16 -4 19 -17 14 -44 -19 -62 -17 -89 10 -23 23 -26 32 -21
73 8 71 46 94 110 67 25 -10 23 31 -2 45 -41 21 -91 12 -127 -24z"/>
<path d="M4875 1357 c-3 -7 -4 -65 -3 -128 l3 -114 70 0 c58 0 70 3 73 18 3
14 -4 17 -48 17 l-51 0 3 38 c3 35 5 37 41 40 30 3 37 7 35 20 -3 9 -10 16
-18 14 -8 -2 -24 -1 -37 3 -18 4 -23 12 -23 35 0 29 1 30 51 30 43 0 50 3 47
18 -3 14 -16 18 -71 20 -50 2 -69 -1 -72 -11z"/>
<path d="M5071 1356 c-8 -9 -11 -52 -9 -127 3 -106 4 -114 23 -114 18 0 20 8
23 95 l3 95 47 -89 c49 -93 68 -114 96 -103 14 5 16 25 16 132 0 118 -1 125
-20 125 -17 0 -19 -8 -22 -87 l-3 -88 -42 81 c-23 45 -49 84 -58 88 -26 9 -42
7 -54 -8z"/>
<path d="M5304 1356 c-9 -24 6 -38 37 -34 l28 4 3 -105 c3 -106 3 -106 28
-106 25 0 25 1 30 105 l5 105 30 0 c23 0 30 4 30 20 0 18 -8 20 -93 23 -74 2
-93 0 -98 -12z"/>
<path d="M5535 1357 c-3 -7 -4 -65 -3 -128 l3 -114 70 0 c58 0 70 3 73 18 3
14 -4 17 -47 17 l-51 0 0 41 c0 36 3 40 23 39 42 -4 57 0 57 15 0 15 -15 19
-57 15 -20 -1 -23 3 -23 34 l0 36 49 0 c41 0 49 3 47 18 -2 14 -15 18 -70 20
-49 2 -68 -1 -71 -11z"/>
<path d="M5725 1358 c-3 -8 -4 -66 -3 -129 3 -110 4 -114 26 -117 21 -3 22 0
22 52 0 40 4 56 13 56 19 0 42 -28 60 -72 11 -26 22 -38 36 -38 31 0 32 12 5
70 -23 50 -23 54 -8 72 22 23 22 74 2 95 -22 22 -146 31 -153 11z m103 -37 c8
-4 12 -19 10 -32 -2 -19 -10 -25 -35 -27 -32 -3 -33 -2 -33 32 0 31 3 36 23
36 12 0 28 -4 35 -9z"/>
</g>
</svg>
